# Blender v2.79 (sub 0) OBJ File: ''
# www.blender.org
mtllib jerrycan0.mtl
o jerrycanlow_Untitled
v -0.173913 0.035692 0.222147
v 0.068178 0.698387 0.244330
v 0.068178 0.745400 0.270786
v 0.055157 0.718039 0.209406
v 0.055157 0.765053 0.235861
v 0.021068 0.730185 0.187821
v 0.021068 0.777199 0.214276
v -0.021068 0.730185 0.187821
v -0.021068 0.777199 0.214276
v -0.055157 0.718039 0.209406
v -0.055157 0.765053 0.235861
v -0.068178 0.698387 0.244330
v -0.068178 0.745400 0.270786
v -0.055157 0.678734 0.279255
v -0.055157 0.725748 0.305710
v -0.021068 0.666588 0.300839
v -0.021068 0.713602 0.327295
v 0.021068 0.666588 0.300839
v 0.021068 0.713602 0.327295
v 0.055157 0.678734 0.279255
v 0.055157 0.725748 0.305710
v 0.054980 0.786025 0.074002
v 0.048280 0.813873 0.102505
v -0.102295 -0.021085 0.251832
v -0.100308 -0.002627 0.291419
v -0.093482 -0.024531 -0.218436
v -0.114480 0.815175 -0.255603
v -0.090461 0.772561 -0.289784
v -0.097019 0.626199 0.315847
v -0.172418 0.701300 0.198378
v 0.065449 0.707112 0.183409
v -0.175026 0.031679 -0.198196
v -0.102392 0.030221 0.311949
v 0.057872 0.678150 0.232943
v -0.017883 0.708311 0.186760
v -0.057872 0.678150 0.232943
v -0.046819 0.696104 0.204014
v -0.046819 0.660785 0.262203
v -0.017883 0.650176 0.280357
v 0.046819 0.696104 0.204014
v 0.017883 0.708311 0.186760
v -0.173539 0.815168 -0.194827
v 0.017883 0.650176 0.280357
v 0.046819 0.660785 0.262203
v -0.179484 0.713573 -0.067109
v -0.097127 -0.005043 -0.261756
v -0.175469 0.712948 0.160012
v 0.097019 0.626199 0.315847
v 0.172418 0.701300 0.198378
v 0.173913 0.035692 0.222147
v 0.102392 0.030221 0.311949
v 0.175469 0.712948 0.160012
v 0.179484 0.713573 -0.067109
v 0.173539 0.815168 -0.194827
v 0.175026 0.031679 -0.198196
v 0.143745 0.823677 -0.226647
v 0.114480 0.815175 -0.255603
v 0.090461 0.772561 -0.289784
v 0.096819 0.037533 -0.288374
v 0.093482 -0.024531 -0.218436
v 0.097127 -0.005043 -0.261756
v 0.102295 -0.021085 0.251832
v 0.100308 -0.002627 0.291419
v -0.176051 0.772243 -0.140864
v -0.053509 0.783342 -0.146084
v -0.080072 0.720629 -0.068443
v -0.059023 0.723582 0.156450
v -0.063884 0.724121 0.109892
v -0.054980 0.786025 0.074002
v -0.048280 0.813873 0.102505
v -0.096819 0.037533 -0.288374
v 0.000000 0.818604 -0.248670
v -0.055512 0.825844 -0.210007
v 0.055512 0.825844 -0.210007
v 0.046196 0.825536 0.088271
v -0.046196 0.825536 0.088271
v 0.176051 0.772243 -0.140864
v 0.053509 0.783342 -0.146084
v 0.080072 0.720629 -0.068443
v -0.143745 0.823677 -0.226647
v 0.059023 0.723582 0.156450
v 0.063884 0.724121 0.109892
vt 0.699752 0.760019
vt 0.686309 0.759042
vt 0.689337 0.737396
vt 0.702919 0.739599
vt 0.656982 0.756550
vt 0.660188 0.732197
vt 0.711895 0.644942
vt 0.690367 0.651846
vt 0.668893 0.644778
vt 0.655675 0.626438
vt 0.698292 0.781127
vt 0.685604 0.781174
vt 0.655675 0.781483
vt 0.655761 0.603831
vt 0.725253 0.626704
vt 0.544795 0.653625
vt 0.496858 0.621133
vt 0.592732 0.621138
vt 0.686598 0.803029
vt 0.698667 0.802075
vt 0.119837 0.153744
vt 0.081637 0.168604
vt 0.061273 0.149633
vt 0.114029 0.134625
vt 0.737219 0.061904
vt 0.737174 0.007346
vt 0.761533 0.059729
vt 0.657517 0.806403
vt 0.669119 0.585592
vt 0.690646 0.578688
vt 0.712120 0.585756
vt 0.725339 0.604096
vt 0.702110 0.821949
vt 0.689528 0.824164
vt 0.661731 0.830130
vt 0.707061 0.840860
vt 0.694345 0.844538
vt 0.667873 0.852577
vt 0.027810 0.142661
vt 0.040369 0.124882
vt 0.713754 0.858831
vt 0.701494 0.863967
vt 0.492081 0.059741
vt 0.469089 0.060265
vt 0.495981 0.006408
vt 0.675429 0.874189
vt 0.040117 0.103156
vt 0.027150 0.085672
vt 0.060444 0.077928
vt 0.722447 0.875725
vt 0.710754 0.883504
vt 0.684295 0.894855
vt 0.491238 0.993592
vt 0.535005 0.970118
vt 0.598662 0.993536
vt 0.713069 0.701161
vt 0.700158 0.696125
vt 0.709523 0.676130
vt 0.721481 0.683845
vt 0.122077 0.133382
vt 0.673449 0.686382
vt 0.682102 0.664662
vt 0.509404 0.909076
vt 0.513083 0.892130
vt 0.513117 0.940047
vt 0.707181 0.719876
vt 0.693710 0.716444
vt 0.665994 0.708627
vt 0.576635 0.940157
vt 0.576437 0.892138
vt 0.447994 0.054265
vt 0.554937 0.970342
vt 0.519064 0.958587
vt 0.006408 0.079145
vt 0.007224 0.149667
vt 0.570767 0.958739
vt 0.484231 0.650171
vt 0.116001 0.092178
vt 0.124126 0.093688
vt 0.276602 0.078603
vt 0.276927 0.146839
vt 0.006474 0.532566
vt 0.009340 0.470968
vt 0.366540 0.460754
vt 0.326237 0.535641
vt 0.492217 0.164525
vt 0.737052 0.156764
vt 0.738091 0.212065
vt 0.496915 0.218760
vt 0.008742 0.245432
vt 0.429084 0.250050
vt 0.405858 0.278877
vt 0.374113 0.318277
vt 0.372930 0.440148
vt 0.406835 0.182154
vt 0.429724 0.204542
vt 0.433885 0.226709
vt 0.012457 0.181419
vt 0.761290 0.158310
vt 0.789984 0.163932
vt 0.469074 0.164310
vt 0.446700 0.170387
vt 0.326175 0.639748
vt 0.006408 0.642438
vt 0.788388 0.053561
vt 0.596127 0.231579
vt 0.493501 0.231576
vt 0.605355 0.650175
vt 0.515987 0.674708
vt 0.468669 0.666480
vt 0.300940 0.112606
vt 0.516182 0.716028
vt 0.449881 0.720596
vt 0.452033 0.683558
vt 0.639689 0.720598
vt 0.573397 0.716018
vt 0.637544 0.683564
vt 0.588675 0.769900
vt 0.579399 0.867022
vt 0.510127 0.867043
vt 0.500889 0.769915
vt 0.449519 0.894875
vt 0.446700 0.771324
vt 0.081751 0.057577
vt 0.122005 0.072890
vt 0.640016 0.894866
vt 0.642859 0.771320
vt 0.694074 0.980150
vt 0.655683 0.984932
vt 0.655675 0.916381
vt 0.694067 0.921154
vt 0.812164 0.979347
vt 0.865704 0.907671
vt 0.865714 0.993592
vt 0.238172 0.058044
vt 0.450931 0.916872
vt 0.620913 0.666486
vt 0.573599 0.674707
vt 0.373788 0.857170
vt 0.405486 0.896608
vt 0.008330 0.929575
vt 0.366388 0.714683
vt 0.372753 0.735297
vt 0.009200 0.704039
vt 0.638615 0.916860
vt 0.812157 0.921929
vt 0.237732 0.168246
vt 0.428678 0.925463
vt 0.433451 0.948810
vt 0.429263 0.970972
vt 0.406347 0.993333
vt 0.011968 0.993592
vn 0.7238 -0.1149 -0.6804
vn 0.7859 0.0881 -0.6120
vn 0.9777 -0.1819 -0.1054
vn 0.9123 -0.3544 -0.2053
vn 0.8090 0.2883 -0.5123
vn 1.0000 -0.0000 0.0000
vn 0.0000 0.8715 0.4904
vn 0.2697 0.0181 -0.9628
vn 0.2976 0.2478 -0.9220
vn 0.3090 0.4664 -0.8288
vn -0.0000 0.8558 -0.5172
vn 0.3323 0.3071 -0.8918
vn -0.3323 0.3071 -0.8918
vn -0.2981 0.2487 -0.9216
vn -0.2709 0.0197 -0.9624
vn -0.9873 0.1539 0.0405
vn -0.4443 0.8954 0.0279
vn -0.1625 0.8686 0.4681
vn -0.5116 0.5705 0.6425
vn -0.3174 -0.9301 -0.1850
vn -0.9112 -0.3141 -0.2664
vn -0.3545 -0.7158 -0.6017
vn -0.3090 0.4664 -0.8288
vn -0.7253 -0.1124 -0.6792
vn -0.7864 0.0893 -0.6112
vn -0.8090 0.2883 -0.5123
vn -0.9127 -0.3536 -0.2047
vn -0.9778 -0.1814 -0.1050
vn -1.0000 -0.0000 -0.0000
vn -0.0576 0.8580 0.5105
vn -0.0192 0.8821 0.4706
vn -0.7442 -0.6092 0.2742
vn -0.7929 -0.4588 0.4011
vn -0.3421 -0.9159 0.2101
vn -0.3893 -0.6948 0.6048
vn -0.8918 -0.3441 0.2937
vn -0.8090 -0.2883 0.5123
vn 0.0288 0.8764 0.4807
vn 0.0576 0.8580 0.5105
vn 0.1320 0.8482 0.5130
vn -0.2851 -0.7699 0.5709
vn -0.3031 -0.6314 0.7138
vn -0.3090 -0.4664 0.8288
vn 0.1474 0.7006 0.6982
vn 0.0068 0.8355 0.5494
vn -0.1269 0.7212 0.6810
vn 0.2849 -0.7701 0.5708
vn 0.3031 -0.6315 0.7137
vn -0.6740 0.7020 0.2301
vn 0.3090 -0.4664 0.8288
vn 0.0151 0.8548 0.5187
vn 0.0495 0.8567 0.5135
vn 0.7441 -0.6093 0.2740
vn 0.7929 -0.4588 0.4010
vn 0.8090 -0.2883 0.5123
vn -0.0495 0.8567 0.5135
vn -0.4414 -0.2634 0.8578
vn -0.0101 0.8389 0.5442
vn 0.0268 0.8514 0.5238
vn -0.0269 0.8514 0.5238
vn 0.2807 0.6655 -0.6916
vn 0.6460 0.5512 0.5281
vn 0.5336 0.8258 0.1825
vn 0.2794 0.9595 0.0371
vn -0.2252 0.9739 0.0301
vn 0.4414 -0.2634 0.8578
vn 0.8918 -0.3441 0.2937
vn 0.6197 0.6074 0.4970
vn 0.3421 -0.9159 0.2101
vn 0.3174 -0.9301 -0.1850
vn 0.9112 -0.3141 -0.2664
vn 0.8701 0.0128 -0.4928
vn 0.9990 0.0021 -0.0448
vn 0.9998 -0.0020 -0.0174
vn 0.9990 -0.0004 0.0455
vn 0.2581 0.9661 -0.0102
vn 0.4045 -0.2556 -0.8781
vn 0.3545 -0.7158 -0.6017
vn 0.3893 -0.6948 0.6048
vn -0.4045 -0.2556 -0.8781
vn -0.2807 0.6655 -0.6916
vn 0.1809 0.8102 0.5575
vn 0.0452 0.7834 0.6199
vn -0.0311 0.8702 0.4917
vn -0.0452 0.7834 0.6199
vn -0.2153 0.8129 0.5412
vn 0.0311 0.8702 0.4917
vn -0.0379 0.9432 0.3300
vn 0.4443 0.8954 0.0279
vn 0.0453 0.9640 0.2619
vn 0.0828 0.9913 0.1026
vn 0.0617 0.9421 0.3296
vn 0.9873 0.1539 0.0405
vn -0.0828 0.9913 0.1026
vn -0.0616 0.9421 0.3296
vn 0.0000 -0.8695 -0.4939
vn 0.0000 -0.5016 -0.8651
vn -0.2581 0.9661 -0.0102
vn -0.9998 -0.0019 -0.0174
vn -0.9990 0.0021 -0.0448
vn -0.6197 0.6074 0.4970
vn -0.9990 -0.0004 0.0455
vn 0.0000 -0.9999 0.0122
vn -0.8701 0.0128 -0.4928
usemtl Material.001
s 1
f 40/1/1 4/2/2 2/3/3 34/4/4
f 4/2/2 5/5/5 3/6/6 2/3/3
f 5/7/7 7/8/7 9/9/7 11/10/7
f 41/11/8 6/12/9 4/2/2 40/1/1
f 6/12/9 7/13/10 5/5/5 4/2/2
f 11/10/7 13/14/7 3/15/7 5/7/7
f 72/16/11 58/17/12 28/18/13
f 8/19/14 6/12/9 41/11/8 35/20/15
f 69/21/16 68/22/17 67/23/18 70/24/19
f 26/25/20 32/26/21 46/27/22
f 8/19/14 9/28/23 7/13/10 6/12/9
f 15/29/7 17/30/7 19/31/7 21/32/7
f 37/33/24 10/34/25 8/19/14 35/20/15
f 10/34/25 11/35/26 9/28/23 8/19/14
f 21/32/7 3/15/7 13/14/7 15/29/7
f 36/36/27 12/37/28 10/34/25 37/33/24
f 12/37/28 13/38/29 11/35/26 10/34/25
f 37/39/30 35/40/31 67/23/18
f 36/36/27 38/41/32 14/42/33 12/37/28
f 24/43/34 25/44/35 1/45/36
f 14/42/33 15/46/37 13/38/29 12/37/28
f 41/47/38 40/48/39 81/49/40
f 39/50/41 16/51/42 14/42/33 38/41/32
f 16/51/42 17/52/43 15/46/37 14/42/33
f 48/53/44 43/54/45 29/55/46
f 43/56/47 18/57/48 16/58/42 39/59/41
f 76/60/49 69/21/16 70/24/19
f 18/57/48 19/61/50 17/62/43 16/58/42
f 48/53/44 31/63/51 81/64/40 34/65/52
f 44/66/53 20/67/54 18/57/48 43/56/47
f 20/67/54 21/68/55 19/61/50 18/57/48
f 29/55/46 36/69/56 67/70/18
f 34/4/4 2/3/3 20/67/54 44/66/53
f 33/71/57 1/45/36 25/44/35
f 2/3/3 3/6/6 21/68/55 20/67/54
f 41/47/38 81/49/40 35/40/31
f 43/54/45 39/72/58 29/55/46
f 48/53/44 44/73/59 43/54/45
f 81/49/40 40/48/39 34/74/52
f 34/65/52 44/73/59 48/53/44
f 36/75/56 37/39/30 67/23/18
f 29/55/46 38/76/60 36/69/56
f 81/49/40 67/23/18 35/40/31
f 72/16/11 57/77/61 58/17/12
f 81/49/40 23/78/62 70/24/19
f 75/79/63 74/80/64 73/81/65
f 51/82/66 50/83/67 49/84/68 48/85/44
f 62/86/69 60/87/70 55/88/71 50/89/67
f 55/90/71 54/91/72 77/92/73
f 50/83/67 55/90/71 53/93/74 52/94/75
f 58/95/12 57/96/61 56/97/76 54/91/72
f 54/91/72 55/90/71 59/98/77 58/95/12
f 55/88/71 61/99/78 59/100/77
f 63/101/79 62/86/69 50/89/67
f 50/89/67 51/102/66 63/101/79
f 51/102/66 33/71/57 25/44/35 63/101/79
f 25/44/35 24/43/34 62/86/69 63/101/79
f 51/82/66 48/85/44 29/103/46 33/104/57
f 24/43/34 26/25/20 60/87/70 62/86/69
f 61/99/78 60/87/70 26/25/20 46/27/22
f 46/27/22 71/105/80 59/100/77 61/99/78
f 71/106/80 28/18/13 58/17/12 59/107/77
f 28/18/13 27/108/81 72/16/11
f 74/109/64 56/110/76 57/77/61 72/16/11
f 72/111/11 73/81/65 74/80/64
f 73/81/65 76/60/49 75/79/63
f 52/94/75 49/84/68 50/83/67
f 74/109/64 78/112/82 56/110/76
f 78/112/82 77/113/83 54/114/84
f 64/115/85 65/116/86 42/117/87
f 66/118/88 68/119/17 82/120/89 79/121/90
f 79/121/90 52/122/91 53/123/92
f 81/64/40 52/122/91 79/121/90 82/120/89
f 81/49/40 82/124/89 22/125/93 23/78/62
f 22/125/93 75/79/63 23/78/62
f 79/121/90 53/123/92 77/113/83 78/112/82
f 54/114/84 56/110/76 78/112/82
f 76/60/49 70/24/19 23/78/62 75/79/63
f 70/24/19 67/23/18 81/49/40
f 47/126/94 66/118/88 45/127/95
f 22/128/96 82/129/97 68/130/97 69/131/96
f 78/132/82 66/133/88 79/134/90
f 75/79/63 22/125/93 78/135/82 74/80/64
f 55/88/71 60/87/70 61/99/78
f 77/92/73 53/93/74 55/90/71
f 49/136/68 52/122/91 81/64/40
f 27/108/81 80/137/98 73/138/65 72/16/11
f 64/115/85 45/127/95 66/118/88 65/116/86
f 80/137/98 42/117/87 65/116/86
f 45/139/99 64/140/100 32/141/21
f 30/142/101 47/143/102 1/144/36
f 65/116/86 73/138/65 80/137/98
f 47/126/94 30/145/101 67/70/18
f 66/118/88 47/126/94 67/70/18 68/119/17
f 22/128/96 69/131/96 65/146/103 78/132/103
f 66/133/88 78/132/82 65/146/86
f 65/147/86 69/21/16 76/60/49 73/81/65
f 29/55/46 67/70/18 30/145/101
f 81/64/40 31/63/51 48/53/44 49/136/68
f 30/142/101 1/144/36 33/104/57 29/103/46
f 32/26/21 26/25/20 24/43/34 1/45/36
f 42/148/104 32/141/21 64/140/100
f 45/139/99 32/141/21 1/144/36 47/143/102
f 80/149/98 27/150/81 28/151/13 42/148/104
f 71/152/80 32/141/21 42/148/104 28/151/13
f 46/27/22 32/26/21 71/105/80
f 39/72/58 38/76/60 29/55/46
