# Blender v2.79 (sub 0) OBJ File: ''
# www.blender.org
mtllib fence0.mtl
o low_meshId0_name
v -2.633737 3.699298 0.134681
v -2.633737 3.835629 0.134681
v -2.633737 3.835629 -0.134682
v -2.633737 3.699298 -0.134682
v 2.479155 3.699298 -0.134682
v 2.479155 3.835629 -0.134682
v 2.633737 3.835629 -0.134682
v 2.633737 3.699298 -0.134682
v 2.633737 3.699298 -0.134682
v 2.633737 3.835629 -0.134682
v 2.633737 3.835629 0.134681
v 2.633737 3.699298 0.134681
v -2.479155 3.699298 0.134681
v -2.479155 3.835629 0.134681
v -2.633737 3.835629 0.134681
v -2.633737 3.699298 0.134681
v 2.530611 0.005996 -0.134681
v 2.633737 0.005996 -0.134681
v 2.633737 0.005996 0.134682
v 2.530611 0.005996 0.134682
v -2.479155 3.835629 -0.134682
v -2.633737 3.835629 -0.134682
v -2.633737 3.835629 0.134681
v -2.479155 3.835629 0.134681
v 2.633737 3.835629 -0.134682
v 2.479155 3.835629 -0.134682
v 2.479155 3.835629 0.134681
v 2.633737 3.835629 0.134681
v -2.633737 0.005996 -0.134681
v -2.530611 0.005996 -0.134681
v -2.530611 0.005996 0.134682
v -2.633737 0.005996 0.134682
v 2.479155 3.699298 0.134681
v -2.479155 3.699298 0.134681
v -2.479155 3.699298 -0.076389
v 2.479155 3.699298 -0.076389
v 2.633737 3.699298 0.134681
v 2.633737 3.835629 0.134681
v 2.479155 3.835629 0.134681
v 2.479155 3.699298 0.134681
v -2.633737 3.699298 -0.134682
v -2.633737 3.835629 -0.134682
v -2.479155 3.835629 -0.134682
v -2.479155 3.699298 -0.134682
v -2.479155 1.096637 -0.134681
v 2.479155 1.096637 -0.134681
v -2.633737 1.096637 -0.134681
v -2.479155 3.699298 0.134681
v -2.479155 1.096637 0.134681
v -2.479155 1.096637 -0.076388
v -2.479155 3.699298 -0.076389
v 2.633737 1.096637 0.134681
v 2.479155 1.096637 0.134681
v -2.479155 1.096637 0.134681
v -2.633737 1.096637 0.134681
v 2.633737 1.096637 -0.134681
v 2.633737 1.096637 0.134681
v 2.633737 1.096637 -0.134681
v -2.633737 1.096637 0.134681
v -2.633737 1.096637 -0.134681
v -2.633737 0.979909 0.134681
v -2.633737 0.979907 -0.134681
v 2.479155 0.979907 -0.134681
v 2.633737 0.979907 -0.134681
v 2.633737 0.979907 -0.134681
v 2.633737 0.979907 0.134681
v -2.479155 0.979907 0.134681
v -2.633737 0.979909 0.134681
v 2.633737 0.979907 0.134681
v 2.479155 0.979907 0.134681
v -2.479155 1.096637 0.134681
v -2.479155 0.979907 0.134681
v -2.633737 0.979907 -0.134681
v -2.479155 0.979907 -0.134681
v -2.479155 0.652831 -0.134681
v 2.479155 0.652831 -0.134681
v -2.633737 0.652831 -0.134681
v 2.479155 0.979907 0.134681
v -2.479155 0.979907 0.134681
v -2.479155 0.979907 0.016453
v 2.479155 0.979907 0.016453
v 2.633737 0.652831 0.134681
v 2.479155 0.652831 0.134681
v -2.479155 0.652831 0.134681
v -2.633737 0.652831 0.134681
v 2.633737 0.652831 -0.134681
v 2.633737 0.652831 0.134681
v 2.633737 0.652831 -0.134681
v -2.633737 0.652831 0.134681
v -2.633737 0.652831 -0.134681
v -2.633737 0.536101 0.134681
v -2.633737 0.536101 -0.134681
v 2.479155 0.536101 -0.134681
v 2.633737 0.536101 -0.134681
v 2.633737 0.536101 -0.134681
v 2.633737 0.536101 0.134681
v -2.479155 0.536101 0.134681
v -2.633737 0.536101 0.134681
v 2.633737 0.536101 0.134681
v 2.479155 0.536101 0.134681
v -2.479155 0.652831 0.134681
v -2.479155 0.536101 0.134681
v -2.633737 0.536101 -0.134681
v -2.479155 0.536101 -0.134681
v -2.479155 1.096637 0.134681
v 2.479155 1.096637 0.134681
v 2.479155 1.096637 -0.076388
v -2.479155 1.096637 -0.076388
v -2.633737 0.005996 -0.134681
v -2.530611 0.005996 -0.134681
v 2.479155 1.096637 -0.076388
v 2.479155 3.699298 -0.076389
v -2.479155 3.699298 -0.076389
v -2.479155 1.096637 -0.076388
v 2.633737 0.005996 0.134682
v 2.530611 0.005996 0.134682
v -2.530611 0.005996 0.134682
v -2.633737 0.005996 0.134682
v 2.633737 0.005996 -0.134681
v 2.633737 0.005996 0.134682
v 2.530611 0.005996 -0.134681
v 2.633737 0.005996 -0.134681
v -2.633737 0.005996 0.134682
v -2.633737 0.005996 -0.134681
v 2.479155 1.096637 0.134681
v 2.479155 3.699298 0.134681
v 2.479155 3.699298 -0.076389
v 2.479155 1.096637 -0.076388
v 2.479155 0.652831 0.016453
v 2.479155 0.979907 0.016453
v -2.479155 0.979907 0.016453
v -2.479155 0.652831 0.016453
v 2.479155 0.652831 0.134681
v 2.479155 0.979907 0.134681
v 2.479155 0.979907 0.016453
v 2.479155 0.652831 0.016453
v -2.479155 0.979907 0.134681
v -2.479155 0.652831 0.134681
v -2.479155 0.652831 0.016453
v -2.479155 0.979907 0.016453
v -2.479155 0.652831 0.134681
v 2.479155 0.652831 0.134681
v 2.479155 0.652831 0.016453
v -2.479155 0.652831 0.016453
v 2.479155 0.536101 -0.134681
v 2.479155 0.536101 0.134681
v -2.479155 0.536101 0.134681
v -2.479155 0.536101 -0.134681
v -2.530611 0.005996 0.134682
v -2.530611 0.005996 -0.134681
v -2.479155 0.536101 -0.134681
v -2.479155 0.536101 0.134681
v 2.479155 0.536101 0.134681
v 2.479155 0.536101 -0.134681
v 2.530611 0.005996 -0.134681
v 2.530611 0.005996 0.134682
vt 0.494886 0.346786
vt 0.520165 0.346786
vt 0.520165 0.359580
vt 0.494886 0.359580
vt 0.000183 0.346787
vt 0.014690 0.346787
vt 0.014690 0.359581
vt 0.000183 0.359581
vt 0.520526 0.346786
vt 0.545805 0.346786
vt 0.545805 0.359580
vt 0.520526 0.359580
vt 0.000181 0.706553
vt 0.014688 0.706553
vt 0.014688 0.719347
vt 0.000181 0.719347
vt 0.575146 0.798235
vt 0.575146 0.772956
vt 0.584824 0.772956
vt 0.584824 0.798235
vt 0.014688 0.798597
vt 0.014688 0.823876
vt 0.000181 0.823876
vt 0.000181 0.798597
vt 0.494516 0.798596
vt 0.494516 0.823875
vt 0.480009 0.823875
vt 0.480009 0.798596
vt 0.000181 0.798235
vt 0.000181 0.772956
vt 0.009859 0.772956
vt 0.009859 0.798235
vt 0.980011 0.624005
vt 0.980011 0.643813
vt 0.514688 0.643813
vt 0.514688 0.624004
vt 0.480011 0.706553
vt 0.494518 0.706553
vt 0.494518 0.719347
vt 0.480011 0.719347
vt 0.480016 0.346788
vt 0.494524 0.346788
vt 0.494523 0.359582
vt 0.480016 0.359582
vt 0.014687 0.102539
vt 0.480017 0.102536
vt 0.494525 0.102536
vt 0.514688 0.624004
vt 0.494880 0.624004
vt 0.494880 0.379752
vt 0.514688 0.379752
vt 0.480011 0.462300
vt 0.494518 0.462300
vt 0.000181 0.462303
vt 0.014688 0.462303
vt 0.520526 0.102534
vt 0.545805 0.102534
vt 0.000181 0.102539
vt 0.494886 0.102534
vt 0.520165 0.102534
vt 0.494886 0.091579
vt 0.520165 0.091579
vt 0.000181 0.091586
vt 0.014687 0.091586
vt 0.520526 0.091579
vt 0.545805 0.091579
vt 0.000181 0.451348
vt 0.014688 0.451348
vt 0.480011 0.451345
vt 0.494518 0.451345
vt 0.014673 0.451345
vt 0.014673 0.462298
vt 0.480017 0.091581
vt 0.494525 0.091581
vt 0.014687 0.060891
vt 0.480017 0.060885
vt 0.494524 0.060885
vt 0.476602 0.761500
vt 0.476602 0.772595
vt 0.011276 0.772595
vt 0.011276 0.761499
vt 0.480011 0.420649
vt 0.494518 0.420649
vt 0.000181 0.420654
vt 0.014688 0.420653
vt 0.520526 0.060884
vt 0.545805 0.060884
vt 0.000181 0.060891
vt 0.494886 0.060884
vt 0.520165 0.060884
vt 0.494886 0.049930
vt 0.520165 0.049929
vt 0.000181 0.049938
vt 0.014687 0.049938
vt 0.520526 0.049929
vt 0.545805 0.049929
vt 0.000181 0.409699
vt 0.014688 0.409699
vt 0.480011 0.409694
vt 0.494518 0.409694
vt 0.014675 0.409693
vt 0.014675 0.420647
vt 0.480017 0.049931
vt 0.494524 0.049930
vt 0.514688 0.379752
vt 0.514688 0.359944
vt 0.980011 0.359944
vt 0.980011 0.379752
vt 0.484845 0.000181
vt 0.494524 0.000181
vt 0.514688 0.379752
vt 0.980011 0.379752
vt 0.980011 0.624005
vt 0.514688 0.624004
vt 0.484840 0.359944
vt 0.494518 0.359944
vt 0.000181 0.359951
vt 0.009859 0.359951
vt 0.520526 0.000181
vt 0.545805 0.000181
vt 0.000181 0.000192
vt 0.009858 0.000192
vt 0.494886 0.000181
vt 0.520165 0.000181
vt 0.980011 0.379752
vt 0.999819 0.379752
vt 0.999819 0.624005
vt 0.980011 0.624005
vt 0.011276 0.730804
vt 0.476602 0.730804
vt 0.476602 0.761500
vt 0.011276 0.761499
vt 0.476602 0.730804
vt 0.487697 0.730804
vt 0.487697 0.761500
vt 0.476602 0.761500
vt 0.011276 0.761499
vt 0.000181 0.761499
vt 0.000181 0.730804
vt 0.011276 0.730804
vt 0.011276 0.730804
vt 0.011276 0.719709
vt 0.476602 0.719709
vt 0.476602 0.730804
vt 0.059842 0.772956
vt 0.525163 0.772956
vt 0.525163 0.798235
vt 0.059842 0.798235
vt 0.059842 0.798235
vt 0.009859 0.798235
vt 0.009859 0.772956
vt 0.059842 0.772956
vt 0.575146 0.798235
vt 0.525163 0.798235
vt 0.525163 0.772956
vt 0.575146 0.772956
vn -1.0000 -0.0000 0.0000
vn 0.0000 0.0000 -1.0000
vn 1.0000 -0.0000 0.0000
vn 0.0000 -0.0000 1.0000
vn 0.0000 -1.0000 0.0000
vn 0.0000 1.0000 0.0000
vn 0.9953 -0.0966 0.0000
vn -0.9953 -0.0966 0.0000
usemtl Material.001
s off
f 4/1/1 1/2/1 2/3/1
f 2/3/1 3/4/1 4/1/1
f 8/5/2 5/6/2 6/7/2
f 6/7/2 7/8/2 8/5/2
f 12/9/3 9/10/3 10/11/3
f 10/11/3 11/12/3 12/9/3
f 16/13/4 13/14/4 14/15/4
f 14/15/4 15/16/4 16/13/4
f 20/17/5 17/18/5 18/19/5
f 18/19/5 19/20/5 20/17/5
f 24/21/6 21/22/6 22/23/6
f 22/23/6 23/24/6 24/21/6
f 28/25/6 25/26/6 26/27/6
f 26/27/6 27/28/6 28/25/6
f 27/28/6 26/27/6 21/22/6
f 21/22/6 24/21/6 27/28/6
f 32/29/5 29/30/5 30/31/5
f 30/31/5 31/32/5 32/29/5
f 36/33/5 33/34/5 34/35/5
f 34/35/5 35/36/5 36/33/5
f 40/37/4 37/38/4 38/39/4
f 38/39/4 39/40/4 40/37/4
f 13/14/4 40/37/4 39/40/4
f 39/40/4 14/15/4 13/14/4
f 44/41/2 41/42/2 42/43/2
f 42/43/2 43/44/2 44/41/2
f 5/6/2 44/41/2 43/44/2
f 43/44/2 6/7/2 5/6/2
f 46/45/2 45/46/2 44/41/2
f 44/41/2 5/6/2 46/45/2
f 45/46/2 47/47/2 41/42/2
f 41/42/2 44/41/2 45/46/2
f 51/48/3 48/49/3 49/50/3
f 49/50/3 50/51/3 51/48/3
f 53/52/4 52/53/4 37/38/4
f 37/38/4 40/37/4 53/52/4
f 55/54/4 54/55/4 13/14/4
f 13/14/4 16/13/4 55/54/4
f 57/56/3 56/57/3 9/10/3
f 9/10/3 12/9/3 57/56/3
f 58/58/2 46/45/2 5/6/2
f 5/6/2 8/5/2 58/58/2
f 60/59/1 59/60/1 1/2/1
f 1/2/1 4/1/1 60/59/1
f 62/61/1 61/62/1 59/60/1
f 59/60/1 60/59/1 62/61/1
f 64/63/2 63/64/2 46/45/2
f 46/45/2 58/58/2 64/63/2
f 66/65/3 65/66/3 56/57/3
f 56/57/3 57/56/3 66/65/3
f 68/67/4 67/68/4 54/55/4
f 54/55/4 55/54/4 68/67/4
f 70/69/4 69/70/4 52/53/4
f 52/53/4 53/52/4 70/69/4
f 72/71/4 70/69/4 53/52/4
f 53/52/4 71/72/4 72/71/4
f 74/73/2 73/74/2 47/47/2
f 47/47/2 45/46/2 74/73/2
f 63/64/2 74/73/2 45/46/2
f 45/46/2 46/45/2 63/64/2
f 76/75/2 75/76/2 74/73/2
f 74/73/2 63/64/2 76/75/2
f 75/76/2 77/77/2 73/74/2
f 73/74/2 74/73/2 75/76/2
f 81/78/5 78/79/5 79/80/5
f 79/80/5 80/81/5 81/78/5
f 83/82/4 82/83/4 69/70/4
f 69/70/4 70/69/4 83/82/4
f 85/84/4 84/85/4 67/68/4
f 67/68/4 68/67/4 85/84/4
f 87/86/3 86/87/3 65/66/3
f 65/66/3 66/65/3 87/86/3
f 88/88/2 76/75/2 63/64/2
f 63/64/2 64/63/2 88/88/2
f 90/89/1 89/90/1 61/62/1
f 61/62/1 62/61/1 90/89/1
f 92/91/1 91/92/1 89/90/1
f 89/90/1 90/89/1 92/91/1
f 94/93/2 93/94/2 76/75/2
f 76/75/2 88/88/2 94/93/2
f 96/95/3 95/96/3 86/87/3
f 86/87/3 87/86/3 96/95/3
f 98/97/4 97/98/4 84/85/4
f 84/85/4 85/84/4 98/97/4
f 100/99/4 99/100/4 82/83/4
f 82/83/4 83/82/4 100/99/4
f 102/101/4 100/99/4 83/82/4
f 83/82/4 101/102/4 102/101/4
f 104/103/2 103/104/2 77/77/2
f 77/77/2 75/76/2 104/103/2
f 93/94/2 104/103/2 75/76/2
f 75/76/2 76/75/2 93/94/2
f 108/105/6 105/106/6 106/107/6
f 106/107/6 107/108/6 108/105/6
f 110/109/2 109/110/2 103/104/2
f 103/104/2 104/103/2 110/109/2
f 114/111/4 111/112/4 112/113/4
f 112/113/4 113/114/4 114/111/4
f 116/115/4 115/116/4 99/100/4
f 99/100/4 100/99/4 116/115/4
f 118/117/4 117/118/4 97/98/4
f 97/98/4 98/97/4 118/117/4
f 120/119/3 119/120/3 95/96/3
f 95/96/3 96/95/3 120/119/3
f 122/121/2 121/122/2 93/94/2
f 93/94/2 94/93/2 122/121/2
f 124/123/1 123/124/1 91/92/1
f 91/92/1 92/91/1 124/123/1
f 128/125/1 125/126/1 126/127/1
f 126/127/1 127/128/1 128/125/1
f 132/129/4 129/130/4 130/131/4
f 130/131/4 131/132/4 132/129/4
f 136/133/1 133/134/1 134/135/1
f 134/135/1 135/136/1 136/133/1
f 140/137/3 137/138/3 138/139/3
f 138/139/3 139/140/3 140/137/3
f 144/141/6 141/142/6 142/143/6
f 142/143/6 143/144/6 144/141/6
f 148/145/5 145/146/5 146/147/5
f 146/147/5 147/148/5 148/145/5
f 152/149/7 149/150/7 150/151/7
f 150/151/7 151/152/7 152/149/7
f 156/153/8 153/154/8 154/155/8
f 154/155/8 155/156/8 156/153/8
