# Blender v2.79 (sub 0) OBJ File: ''
# www.blender.org
mtllib crop0.mtl
o SM_Grass_03_Plane.898
v 0.089005 0.124574 -0.049824
v -0.024464 0.143468 0.094621
v -0.143092 0.267802 0.134916
v -0.189232 0.183023 0.146653
v -0.117561 -0.004428 0.163141
v 0.039855 0.271583 -0.028063
v 0.089325 -0.008796 0.025350
v 0.001612 0.002207 0.120166
v -0.065762 0.290382 0.048485
v 0.308581 0.347914 0.147578
v 0.059359 -0.005579 -0.100059
v 0.137013 0.304067 -0.167145
v 0.279976 0.556500 -0.272715
v 0.434534 0.554497 0.032555
v 0.052749 0.007994 0.017610
v 0.170585 0.302964 -0.034225
v 0.328532 0.541544 -0.101103
v 0.152377 0.000340 0.107030
v -0.061305 0.005440 0.012191
v -0.029822 0.005781 0.019503
v -0.055059 1.096980 -0.112795
v -0.089196 0.607751 -0.083818
v 0.013028 0.620924 0.016713
v -0.118902 0.659161 -0.156926
v 0.036611 0.680416 0.005911
v -0.105913 0.262874 -0.102390
v -0.028178 0.273571 -0.018904
v -0.139115 0.807410 -0.158735
v 0.020942 0.829606 0.011470
v -0.053708 1.096855 -0.106864
v -0.041486 0.606461 -0.105991
v -0.041934 0.619655 0.037400
v -0.026059 0.658346 -0.179734
v -0.068480 0.682995 0.041843
v -0.038538 0.805831 -0.195372
v -0.066788 0.829950 0.036213
v -0.061651 1.097545 -0.105221
v 0.001813 0.613162 -0.045851
v -0.141129 0.607494 -0.057564
v 0.069538 0.675690 -0.056719
v -0.154838 0.666666 -0.088203
v 0.064734 0.822461 -0.071362
v -0.169729 0.813336 -0.072730
v 0.058633 0.005050 0.140985
v 0.092669 0.005111 0.186383
v 0.086204 0.830504 0.195191
v 0.137155 0.869650 0.261445
v 0.004271 0.523134 0.153057
v 0.184953 0.481517 0.283561
v 0.146194 0.428531 0.240885
v 0.044257 0.445423 0.157355
v 0.101298 0.211502 0.234242
v 0.046230 0.225003 0.155653
v 0.129700 0.825287 0.180948
v 0.115897 0.874695 0.261145
v 0.098484 0.515542 0.105103
v 0.104850 0.485202 0.328864
v 0.083726 0.433039 0.275126
v 0.079964 0.442847 0.142945
v 0.182541 0.814680 0.242708
v 0.112493 0.870816 0.254122
v 0.197939 0.505206 0.185578
v -0.026513 0.510024 0.213500
v 0.019863 0.439268 0.225519
v 0.148118 0.435173 0.187243
v 0.045261 0.100608 0.019267
v 0.047177 0.101072 -0.035465
v 0.128574 0.908903 0.091177
v 0.107991 0.965023 0.018803
v 0.111443 0.595856 0.131426
v 0.092128 0.590886 -0.091436
v 0.095629 0.529018 -0.044367
v 0.097071 0.526443 0.086661
v 0.072107 0.314950 -0.039939
v 0.065335 0.315016 0.053152
v 0.067311 0.918919 0.069665
v 0.122459 0.964775 0.017086
v 0.010625 0.609989 0.096775
v 0.173261 0.583470 -0.057017
v 0.123911 0.531045 -0.032949
v 0.054674 0.527590 0.080814
v 0.071852 0.917676 -0.002708
v 0.141632 0.960901 0.035799
v 0.011710 0.610550 -0.044618
v 0.172292 0.580789 0.108757
v 0.126619 0.525406 0.079999
v 0.042787 0.534923 -0.023480
v -0.127584 0.002178 0.180476
v -0.120873 0.003350 0.138851
v -0.173964 0.794763 0.200800
v -0.186813 0.437925 0.183113
v -0.088979 0.450778 0.147632
v -0.239692 0.479486 0.190144
v -0.077709 0.488395 0.169874
v -0.217575 0.192715 0.159091
v -0.132941 0.196363 0.154347
v -0.242017 0.580639 0.215528
v -0.076762 0.594003 0.181557
v -0.177016 0.790005 0.216904
v -0.190322 0.437977 0.168053
v -0.102747 0.437792 0.223235
v -0.218152 0.488465 0.119325
v -0.093489 0.482536 0.226776
v -0.225178 0.593788 0.131902
v -0.094383 0.588225 0.241286
v -0.179616 0.794050 0.204095
v -0.124307 0.442417 0.153279
v -0.193484 0.433690 0.230301
v -0.104922 0.493049 0.111769
v -0.192423 0.473473 0.248476
v -0.104011 0.597156 0.126984
v -0.220716 0.583894 0.250204
v -0.174596 0.452087 -0.253806
v -0.140706 0.007212 0.212641
v -0.286882 0.399968 0.207353
v -0.533085 0.724547 0.174458
v -0.411577 0.713097 -0.261350
v -0.055795 0.004887 0.093032
v -0.184041 0.413070 0.054306
v -0.419841 0.713712 -0.032049
v -0.082543 0.003086 -0.071174
v -0.331794 0.463497 0.239957
v 0.104265 0.003611 0.265845
v 0.125384 0.408179 0.355932
v 0.105019 0.758763 0.568830
v -0.331854 0.751512 0.447636
v -0.002221 0.006303 0.175135
v -0.028720 0.412617 0.261284
v -0.101173 0.749285 0.453182
v -0.159545 0.002406 0.150773
v 0.265669 0.389501 -0.086278
v -0.143594 0.007305 -0.016739
v -0.134241 0.341254 -0.157344
v -0.133754 0.644777 -0.350486
v 0.254847 0.634017 -0.272672
v -0.029946 0.003318 0.048466
v -0.000426 0.355660 -0.074942
v 0.056244 0.626769 -0.270062
v 0.115278 0.004136 0.004546
v 0.301286 0.486618 0.224348
v 0.028515 0.000200 -0.138585
v 0.107078 0.416123 -0.206160
v 0.265927 0.770865 -0.324551
v 0.452430 0.774583 0.085108
v 0.040374 0.009155 0.013291
v 0.139606 0.416256 -0.029117
v 0.298147 0.774230 -0.090896
v 0.174101 0.006769 0.124067
v 0.030614 0.334181 0.353633
v 0.142310 0.007080 0.040541
v 0.214308 0.310897 0.042010
v 0.386854 0.543889 0.136880
v 0.185767 0.544779 0.411014
v 0.033790 0.002279 0.078907
v 0.114669 0.305571 0.138435
v 0.241716 0.556003 0.242869
v -0.015128 0.010562 0.189664
v -0.224529 0.117168 0.031406
v -0.147620 0.121635 0.175446
v -0.140380 0.233216 0.291253
v -0.088597 0.176288 0.309750
v -0.088254 0.001267 0.267942
v -0.255305 0.230606 0.103481
v -0.175015 -0.006045 0.056706
v -0.092087 0.010747 0.143094
v -0.188953 0.259561 0.198962
v 0.011792 0.116225 0.267076
v 0.111097 0.126488 0.137673
v 0.210898 0.242350 0.084829
v 0.231221 0.168997 0.047760
v 0.146404 0.012598 0.026165
v 0.077688 0.237599 0.261047
v 0.016284 0.009841 0.212196
v 0.104208 0.004937 0.133340
v 0.151467 0.262421 0.170333
vt 0.235426 0.360670
vt 0.236509 0.183121
vt 0.496751 0.176405
vt 0.421843 0.335861
vt 0.237435 0.031224
vt 0.424965 0.029661
vt 0.069876 0.333268
vt 0.003523 0.250823
vt 0.062427 0.032445
vt 0.124107 0.382353
vt 0.224508 0.382353
vt 0.316422 0.649610
vt 0.124107 0.656019
vt 0.285895 0.851494
vt 0.141584 0.843268
vt 0.016529 0.616924
vt 0.000049 0.851494
vt 0.041248 0.382353
vt 0.557891 0.759860
vt 0.557891 0.886363
vt 0.406135 0.823250
vt 0.853562 0.765631
vt 0.853562 0.827533
vt 0.670007 0.874730
vt 0.670007 0.797317
vt 0.637525 0.881722
vt 0.637525 0.759860
vt 1.001518 0.813600
vt 1.001518 0.827533
vt 0.557891 0.759860
vt 0.557891 0.886363
vt 0.406135 0.823250
vt 0.670007 0.797317
vt 0.670007 0.874730
vt 0.637525 0.881722
vt 0.637525 0.759860
vt 0.557891 0.759860
vt 0.557891 0.886363
vt 0.406135 0.823250
vt 0.670007 0.797317
vt 0.670007 0.874730
vt 0.637525 0.881722
vt 0.637525 0.759860
vt 0.650106 0.597283
vt 0.659272 0.751770
vt 0.400373 0.683366
vt 0.434375 0.631713
vt 0.850059 0.646065
vt 0.850059 0.710408
vt 0.700314 0.717778
vt 0.700314 0.626985
vt 0.999907 0.665160
vt 0.999907 0.703032
vt 0.650106 0.597283
vt 0.659272 0.751770
vt 0.400373 0.683366
vt 0.434375 0.631713
vt 0.700314 0.626985
vt 0.700314 0.717778
vt 0.650106 0.597283
vt 0.659272 0.751770
vt 0.400373 0.683366
vt 0.434375 0.631713
vt 0.700314 0.626985
vt 0.700314 0.717778
vt 0.650106 0.597283
vt 0.659272 0.751770
vt 0.400373 0.683366
vt 0.434375 0.631713
vt 0.850059 0.646065
vt 0.850059 0.710408
vt 0.700314 0.717778
vt 0.700314 0.626985
vt 0.999907 0.665160
vt 0.999907 0.703032
vt 0.650106 0.597283
vt 0.659272 0.751770
vt 0.400373 0.683366
vt 0.434375 0.631713
vt 0.700314 0.626985
vt 0.700314 0.717778
vt 0.650106 0.597283
vt 0.659272 0.751770
vt 0.400373 0.683366
vt 0.434375 0.631713
vt 0.700314 0.626985
vt 0.700314 0.717778
vt 0.557891 0.759860
vt 0.557891 0.886363
vt 0.406135 0.823250
vt 0.853562 0.765631
vt 0.853562 0.827533
vt 0.670007 0.874730
vt 0.670007 0.797317
vt 0.637525 0.881722
vt 0.637525 0.759860
vt 1.001518 0.813600
vt 1.001518 0.827533
vt 0.557891 0.759860
vt 0.557891 0.886363
vt 0.406135 0.823250
vt 0.670007 0.797317
vt 0.670007 0.874730
vt 0.637525 0.881722
vt 0.637525 0.759860
vt 0.557891 0.759860
vt 0.557891 0.886363
vt 0.406135 0.823250
vt 0.670007 0.797317
vt 0.670007 0.874730
vt 0.637525 0.881722
vt 0.637525 0.759860
vt 0.124107 0.382353
vt 0.224508 0.382353
vt 0.316422 0.649610
vt 0.124107 0.656019
vt 0.285895 0.851494
vt 0.141584 0.843268
vt 0.016529 0.616924
vt 0.000049 0.851494
vt 0.041248 0.382353
vt 0.124107 0.382353
vt 0.224508 0.382353
vt 0.316422 0.649610
vt 0.124107 0.656019
vt 0.285895 0.851494
vt 0.141584 0.843268
vt 0.016529 0.616924
vt 0.000049 0.851494
vt 0.041248 0.382353
vt 0.124107 0.382353
vt 0.224508 0.382353
vt 0.316422 0.649610
vt 0.124107 0.656019
vt 0.285895 0.851494
vt 0.141584 0.843268
vt 0.016529 0.616924
vt 0.000049 0.851494
vt 0.041248 0.382353
vt 0.124107 0.382353
vt 0.224508 0.382353
vt 0.316422 0.649610
vt 0.124107 0.656019
vt 0.285895 0.851494
vt 0.141584 0.843268
vt 0.016529 0.616924
vt 0.000049 0.851494
vt 0.041248 0.382353
vt 0.124107 0.382353
vt 0.224508 0.382353
vt 0.316422 0.649610
vt 0.124107 0.656019
vt 0.285895 0.851494
vt 0.141584 0.843268
vt 0.016529 0.616924
vt 0.000049 0.851494
vt 0.041248 0.382353
vt 0.235426 0.360670
vt 0.236509 0.183121
vt 0.496751 0.176405
vt 0.421843 0.335861
vt 0.237435 0.031224
vt 0.424965 0.029661
vt 0.069876 0.333268
vt 0.003523 0.250823
vt 0.062427 0.032445
vt 0.235426 0.360670
vt 0.236509 0.183121
vt 0.496751 0.176405
vt 0.421843 0.335861
vt 0.237435 0.031224
vt 0.424965 0.029661
vt 0.069876 0.333268
vt 0.003523 0.250823
vt 0.062427 0.032445
vn 0.6099 0.2392 0.7555
vn 0.5762 0.2517 0.7776
vn 0.7297 0.2814 0.6232
vn 0.7062 0.2716 0.6538
vn 0.5706 0.2643 0.7776
vn 0.7500 0.2901 0.5944
vn 0.4969 0.2005 0.8443
vn 0.4254 0.2083 0.8807
vn 0.3323 0.2162 0.9181
vn -0.8736 0.3356 0.3523
vn -0.7334 0.3233 0.5981
vn -0.7106 0.5022 0.4928
vn -0.8184 0.4531 0.3533
vn -0.6804 0.6037 0.4155
vn -0.7365 0.5891 0.3325
vn -0.8677 0.4652 0.1753
vn -0.7870 0.5674 0.2422
vn -0.9430 0.3217 0.0854
vn -0.7264 -0.0092 0.6872
vn -0.7265 -0.0077 0.6871
vn -0.7313 0.1053 0.6739
vn -0.6829 0.0813 0.7260
vn -0.6833 0.0802 0.7257
vn -0.7082 0.2503 0.6601
vn -0.7081 0.2509 0.6600
vn -0.7227 0.1449 0.6758
vn -0.7252 0.0749 0.6844
vn -0.6403 0.1661 0.7500
vn -0.9901 -0.0335 -0.1365
vn -0.9901 -0.0331 -0.1361
vn -0.9927 -0.0154 -0.1195
vn -0.9830 -0.1546 -0.0994
vn -0.9873 -0.0954 -0.1270
vn -0.9877 -0.0810 -0.1336
vn 0.0451 -0.0463 -0.9979
vn 0.0447 -0.0472 -0.9979
vn 0.0104 -0.1175 -0.9930
vn 0.1231 -0.3689 -0.9213
vn 0.0965 -0.1663 -0.9813
vn 0.0894 -0.1162 -0.9892
vn -0.6397 -0.0857 0.7638
vn -0.6389 -0.0927 0.7637
vn -0.6473 0.0098 0.7622
vn -0.7631 -0.0116 0.6462
vn -0.7660 -0.0158 0.6427
vn -0.6628 -0.1142 0.7400
vn -0.6634 -0.1125 0.7398
vn -0.8133 -0.0915 0.5746
vn -0.9877 0.1560 0.0074
vn -0.9869 0.1609 0.0093
vn -0.9978 0.0606 -0.0282
vn -0.9536 0.2951 0.0604
vn -0.1340 0.0617 -0.9891
vn -0.1383 0.0493 -0.9892
vn -0.0978 0.1613 -0.9821
vn -0.1859 -0.0905 -0.9784
vn 0.9928 -0.0533 -0.1071
vn 0.9930 -0.0548 -0.1047
vn 0.9897 -0.0333 -0.1395
vn 0.9920 -0.1203 0.0384
vn 0.9920 -0.1195 0.0398
vn 0.9944 -0.1025 -0.0254
vn 0.9944 -0.1024 -0.0256
vn 0.9924 -0.1083 0.0580
vn 0.7170 -0.0294 0.6965
vn 0.7192 -0.0273 0.6943
vn 0.6894 -0.0551 0.7223
vn 0.7561 0.0096 0.6544
vn -0.6739 0.0533 0.7369
vn -0.6764 0.0526 0.7347
vn -0.6409 0.0621 0.7651
vn -0.7208 0.0401 0.6920
vn 0.1854 -0.0978 0.9778
vn 0.1859 -0.0953 0.9779
vn 0.2011 0.0035 0.9796
vn 0.3260 0.0240 0.9451
vn 0.3295 0.0271 0.9438
vn 0.2225 -0.1631 0.9612
vn 0.2225 -0.1616 0.9614
vn 0.1953 -0.2001 0.9601
vn 0.1883 -0.1917 0.9632
vn 0.4432 0.1315 0.8867
vn -0.6418 -0.1419 0.7536
vn -0.6418 -0.1422 0.7536
vn -0.6365 -0.1697 0.7524
vn -0.5840 0.2522 0.7716
vn -0.6283 0.0532 0.7762
vn -0.6356 0.0003 0.7720
vn -0.7593 -0.0334 -0.6498
vn -0.7575 -0.0320 -0.6521
vn -0.7255 -0.0091 -0.6881
vn -0.8081 0.0309 -0.5883
vn -0.7948 -0.0135 -0.6067
vn -0.7911 -0.0251 -0.6112
vn 0.9167 0.2845 0.2807
vn 0.9694 0.2450 -0.0162
vn 0.8630 0.5038 0.0380
vn 0.8507 0.4528 0.2670
vn 0.7572 0.6493 0.0713
vn 0.7315 0.6371 0.2429
vn 0.7372 0.4738 0.4817
vn 0.6814 0.6041 0.4133
vn 0.7807 0.2977 0.5494
vn 0.3524 0.2069 -0.9127
vn 0.1188 0.2228 -0.9676
vn 0.1065 0.4246 -0.8991
vn 0.3204 0.3588 -0.8767
vn 0.0961 0.5442 -0.8334
vn 0.2643 0.5309 -0.8052
vn 0.5028 0.3619 -0.7850
vn 0.4312 0.5004 -0.7508
vn 0.5736 0.1776 -0.7996
vn -0.2085 0.3112 0.9272
vn 0.1078 0.2529 0.9615
vn 0.0255 0.4705 0.8820
vn -0.2017 0.4368 0.8767
vn -0.0286 0.5962 0.8023
vn -0.2001 0.5800 0.7897
vn -0.4300 0.4537 0.7805
vn -0.3719 0.5448 0.7516
vn -0.4928 0.3366 0.8024
vn -0.9071 0.2004 0.3702
vn -0.7811 0.1600 0.6036
vn -0.7659 0.3729 0.5237
vn -0.8792 0.3230 0.3503
vn -0.7363 0.4962 0.4600
vn -0.8264 0.4724 0.3065
vn -0.9306 0.3413 0.1320
vn -0.8916 0.4317 0.1369
vn -0.9663 0.2253 0.1242
vn -0.7350 0.2774 -0.6187
vn -0.8663 0.3136 -0.3889
vn -0.8108 0.4758 -0.3409
vn -0.7037 0.4243 -0.5699
vn -0.7613 0.5727 -0.3040
vn -0.6524 0.5885 -0.4775
vn -0.5330 0.4307 -0.7283
vn -0.5102 0.5785 -0.6364
vn -0.5380 0.2173 -0.8145
vn 0.7830 0.4046 -0.4724
vn 0.8287 0.3495 -0.4371
vn 0.7548 0.3820 -0.5332
vn 0.7561 0.4107 -0.5095
vn 0.8490 0.3109 -0.4272
vn 0.7527 0.3545 -0.5548
vn 0.8086 0.3976 -0.4336
vn 0.8664 0.3386 -0.3671
vn 0.9296 0.2515 -0.2693
vn -0.7255 0.3297 -0.6041
vn -0.7458 0.2893 -0.6001
vn -0.7507 0.2730 -0.6016
vn -0.7583 0.3688 -0.5375
vn -0.7552 0.2425 -0.6090
vn -0.7341 0.1780 -0.6554
vn -0.6874 0.2880 -0.6668
vn -0.7248 0.2966 -0.6218
vn -0.7716 0.3066 -0.5574
usemtl Material.001
s 1
f 9/1/1 2/2/2 1/3/3 6/4/4
f 2/2/2 8/5/5 7/6/6 1/3/3
f 3/7/7 4/8/8 2/2/2 9/1/1
f 4/8/8 5/9/9 8/5/5 2/2/2
f 15/10/10 18/11/11 10/12/12 16/13/13
f 10/12/12 14/14/14 17/15/15 16/13/13
f 12/16/16 16/13/13 17/15/15 13/17/17
f 15/10/10 16/13/13 12/16/16 11/18/18
f 28/19/19 29/20/20 21/21/21
f 26/22/22 27/23/23 23/24/24 22/25/25
f 22/25/25 23/24/24 25/26/26 24/27/27
f 19/28/28 20/29/28 27/23/23 26/22/22
f 24/27/27 25/26/26 29/20/20 28/19/19
f 35/30/29 36/31/30 30/32/31
f 31/33/32 32/34/32 34/35/33 33/36/34
f 33/36/34 34/35/33 36/31/30 35/30/29
f 42/37/35 43/38/36 37/39/37
f 38/40/38 39/41/38 41/42/39 40/43/40
f 40/43/40 41/42/39 43/38/36 42/37/35
f 48/44/41 49/45/42 47/46/43 46/47/43
f 53/48/44 52/49/45 50/50/46 51/51/47
f 51/51/47 50/50/46 49/45/42 48/44/41
f 44/52/48 45/53/48 52/49/45 53/48/44
f 56/54/49 57/55/50 55/56/51 54/57/51
f 59/58/52 58/59/52 57/55/50 56/54/49
f 62/60/53 63/61/54 61/62/55 60/63/55
f 65/64/56 64/65/56 63/61/54 62/60/53
f 70/66/57 71/67/58 69/68/59 68/69/59
f 75/70/60 74/71/61 72/72/62 73/73/63
f 73/73/63 72/72/62 71/67/58 70/66/57
f 66/74/64 67/75/64 74/71/61 75/70/60
f 78/76/65 79/77/66 77/78/67 76/79/67
f 81/80/68 80/81/68 79/77/66 78/76/65
f 84/82/69 85/83/70 83/84/71 82/85/71
f 87/86/72 86/87/72 85/83/70 84/82/69
f 97/88/73 98/89/74 90/90/75
f 95/91/76 96/92/77 92/93/78 91/94/79
f 91/94/79 92/93/78 94/95/80 93/96/81
f 88/97/82 89/98/82 96/92/77 95/91/76
f 93/96/81 94/95/80 98/89/74 97/88/73
f 104/99/83 105/100/84 99/101/85
f 100/102/86 101/103/86 103/104/87 102/105/88
f 102/105/88 103/104/87 105/100/84 104/99/83
f 111/106/89 112/107/90 106/108/91
f 107/109/92 108/110/92 110/111/93 109/112/94
f 109/112/94 110/111/93 112/107/90 111/106/89
f 118/113/95 121/114/96 113/115/97 119/116/98
f 113/115/97 117/117/99 120/118/100 119/116/98
f 115/119/101 119/116/98 120/118/100 116/120/102
f 118/113/95 119/116/98 115/119/101 114/121/103
f 127/122/104 130/123/105 122/124/106 128/125/107
f 122/124/106 126/126/108 129/127/109 128/125/107
f 124/128/110 128/125/107 129/127/109 125/129/111
f 127/122/104 128/125/107 124/128/110 123/130/112
f 136/131/113 139/132/114 131/133/115 137/134/116
f 131/133/115 135/135/117 138/136/118 137/134/116
f 133/137/119 137/134/116 138/136/118 134/138/120
f 136/131/113 137/134/116 133/137/119 132/139/121
f 145/140/122 148/141/123 140/142/124 146/143/125
f 140/142/124 144/144/126 147/145/127 146/143/125
f 142/146/128 146/143/125 147/145/127 143/147/129
f 145/140/122 146/143/125 142/146/128 141/148/130
f 154/149/131 157/150/132 149/151/133 155/152/134
f 149/151/133 153/153/135 156/154/136 155/152/134
f 151/155/137 155/152/134 156/154/136 152/156/138
f 154/149/131 155/152/134 151/155/137 150/157/139
f 166/158/140 159/159/141 158/160/142 163/161/143
f 159/159/141 165/162/144 164/163/145 158/160/142
f 160/164/146 161/165/147 159/159/141 166/158/140
f 161/165/147 162/166/148 165/162/144 159/159/141
f 175/167/149 168/168/150 167/169/151 172/170/152
f 168/168/150 174/171/153 173/172/154 167/169/151
f 169/173/155 170/174/156 168/168/150 175/167/149
f 170/174/156 171/175/157 174/171/153 168/168/150
