# Blender v2.79 (sub 0) OBJ File: ''
# www.blender.org
mtllib grass0.mtl
o SM_Grass_01_Plane.002_SM_Grass_01_Plane.000
v 0.043505 0.317729 0.029601
v -0.067889 0.295085 0.063262
v -0.113973 0.141181 0.073423
v 0.043972 0.148303 0.029537
v -0.072285 0.000929 0.053968
v 0.043366 0.003025 0.026984
v 0.145688 0.292231 -0.002693
v 0.184582 0.212813 -0.017259
v 0.149425 0.004362 -0.005195
vt 0.235426 0.360670
vt 0.421843 0.335861
vt 0.496751 0.176405
vt 0.236509 0.183121
vt 0.424965 0.029661
vt 0.237435 0.031224
vt 0.069876 0.333268
vt 0.003523 0.250823
vt 0.062427 0.032445
vn 0.2939 -0.0080 0.9558
vn 0.2776 -0.0092 0.9607
vn 0.2644 -0.0242 0.9641
vn 0.2866 -0.0146 0.9579
vn 0.2518 -0.0383 0.9670
vn 0.2789 -0.0220 0.9601
vn 0.3107 -0.0067 0.9505
vn 0.3089 -0.0062 0.9511
vn 0.3062 -0.0054 0.9519
usemtl Material.086
s 1
f 1/1/1 2/2/2 3/3/3 4/4/4
f 4/4/4 3/3/3 5/5/5 6/6/6
f 7/7/7 1/1/1 4/4/4 8/8/8
f 8/8/8 4/4/4 6/6/6 9/9/9
o SM_Grass_01_Plane.003_SM_Grass_01_Plane.008
v 0.149447 0.320360 0.134737
v 0.148990 0.149531 0.134867
v 0.300272 0.142350 0.068283
v 0.255751 0.297529 0.085073
v 0.149964 0.003050 0.137327
v 0.261478 0.000937 0.093713
v 0.052137 0.294651 0.181707
v 0.015428 0.214575 0.201854
v 0.048770 0.004399 0.184742
vt 0.235426 0.360670
vt 0.236509 0.183121
vt 0.496751 0.176405
vt 0.421843 0.335861
vt 0.237435 0.031224
vt 0.424965 0.029661
vt 0.069876 0.333268
vt 0.003523 0.250823
vt 0.062427 0.032445
vn 0.4277 0.0080 0.9039
vn 0.4207 0.0146 0.9071
vn 0.3996 0.0242 0.9164
vn 0.4122 0.0092 0.9110
vn 0.4134 0.0220 0.9103
vn 0.3876 0.0383 0.9210
vn 0.4435 0.0067 0.8962
vn 0.4418 0.0062 0.8971
vn 0.4393 0.0054 0.8983
usemtl Material.010
s 1
f 10/10/10 11/11/11 12/12/12 13/13/13
f 11/11/11 14/14/14 15/15/15 12/12/12
f 16/16/16 17/17/17 11/11/11 10/10/10
f 17/17/17 18/18/18 14/14/14 11/11/11
o SM_Grass_01_Plane.001_SM_Grass_01_Plane.000
v -0.249571 0.268591 -0.124098
v -0.207061 0.249449 -0.212811
v -0.187125 0.119347 -0.247365
v -0.249797 0.125367 -0.123770
v -0.198755 0.000785 -0.210254
v -0.247858 0.002557 -0.122693
v -0.287682 0.247036 -0.041912
v -0.300768 0.179901 -0.009334
v -0.288251 0.003688 -0.038154
vt 0.235426 0.360670
vt 0.421843 0.335861
vt 0.496751 0.176405
vt 0.236509 0.183121
vt 0.424965 0.029661
vt 0.237435 0.031224
vt 0.069876 0.333268
vt 0.003523 0.250823
vt 0.062427 0.032445
vn -0.9039 -0.0080 -0.4277
vn -0.8965 -0.0092 -0.4430
vn -0.8901 -0.0242 -0.4551
vn -0.9005 -0.0146 -0.4346
vn -0.8837 -0.0383 -0.4664
vn -0.8969 -0.0220 -0.4417
vn -0.9113 -0.0067 -0.4117
vn -0.9105 -0.0062 -0.4134
vn -0.9093 -0.0054 -0.4160
usemtl Material.084
s 1
f 19/19/19 20/20/20 21/21/21 22/22/22
f 22/22/22 21/21/21 23/23/23 24/24/24
f 25/25/25 19/19/19 22/22/22 26/26/26
f 26/26/26 22/22/22 24/24/24 27/27/27
o SM_Grass_01_Plane.000
v -0.083094 0.422004 0.171073
v -0.082593 0.196974 0.171449
v -0.272614 0.187515 0.065157
v -0.219643 0.391929 0.098664
v -0.080779 0.004018 0.168474
v -0.215098 0.001234 0.085787
v 0.043488 0.388138 0.236161
v 0.093796 0.282656 0.258788
v 0.049353 0.005794 0.237294
vt 0.235426 0.360670
vt 0.236509 0.183121
vt 0.496751 0.176405
vt 0.421843 0.335861
vt 0.237435 0.031224
vt 0.424965 0.029661
vt 0.069876 0.333268
vt 0.003523 0.250823
vt 0.062427 0.032445
vn 0.4642 0.0080 -0.8857
vn 0.4709 0.0146 -0.8821
vn 0.4910 0.0242 -0.8708
vn 0.4792 0.0092 -0.8777
vn 0.4778 0.0220 -0.8782
vn 0.5020 0.0383 -0.8640
vn 0.4485 0.0067 -0.8938
vn 0.4502 0.0062 -0.8929
vn 0.4527 0.0054 -0.8916
usemtl Material.002
s 1
f 28/28/28 29/29/29 30/30/30 31/31/31
f 29/29/29 32/32/32 33/33/33 30/30/30
f 34/34/34 35/35/35 29/29/29 28/28/28
f 35/35/35 36/36/36 32/32/32 29/29/29
o SM_Grass_01_Plane.004_SM_Grass_01_Plane.001
v 0.142159 0.317729 -0.025060
v 0.142435 0.148303 -0.025443
v 0.065025 0.141181 0.119057
v 0.089522 0.295085 0.078723
v 0.140171 0.003025 -0.026768
v 0.079767 0.000929 0.075478
v 0.189420 0.292231 -0.121242
v 0.205764 0.212813 -0.159422
v 0.190193 0.004362 -0.125672
vt 0.235426 0.360670
vt 0.236509 0.183121
vt 0.496751 0.176405
vt 0.421843 0.335861
vt 0.237435 0.031224
vt 0.424965 0.029661
vt 0.069876 0.333268
vt 0.003523 0.250823
vt 0.062427 0.032445
vn -0.8940 0.0080 -0.4480
vn -0.8905 0.0146 -0.4547
vn -0.8796 0.0242 -0.4751
vn -0.8863 0.0092 -0.4631
vn -0.8867 0.0220 -0.4618
vn -0.8730 0.0383 -0.4862
vn -0.9018 0.0067 -0.4322
vn -0.9010 0.0062 -0.4338
vn -0.8997 0.0054 -0.4364
usemtl Material.087
s 1
f 37/37/37 38/38/38 39/39/39 40/40/40
f 38/38/38 41/41/41 42/42/42 39/39/39
f 43/43/43 44/44/44 38/38/38 37/37/37
f 44/44/44 45/45/45 41/41/41 38/38/38
o SM_Grass_01_Plane.004_SM_Grass_01_Plane.009
v -0.013610 0.317729 -0.186088
v -0.013147 0.148303 -0.185996
v -0.176761 0.141181 -0.196157
v -0.129887 0.295085 -0.190694
v -0.012886 0.003025 -0.188607
v -0.131002 0.000929 -0.200914
v 0.093517 0.292231 -0.183201
v 0.135035 0.212813 -0.184252
v 0.097866 0.004362 -0.184344
vt 0.235426 0.360670
vt 0.236509 0.183121
vt 0.496751 0.176405
vt 0.421843 0.335861
vt 0.237435 0.031224
vt 0.424965 0.029661
vt 0.069876 0.333268
vt 0.003523 0.250823
vt 0.062427 0.032445
vn 0.0347 0.0080 -0.9994
vn 0.0423 0.0146 -0.9990
vn 0.0653 0.0242 -0.9976
vn 0.0517 0.0092 -0.9986
vn 0.0503 0.0220 -0.9985
vn 0.0782 0.0383 -0.9962
vn 0.0171 0.0067 -0.9998
vn 0.0190 0.0062 -0.9998
vn 0.0218 0.0054 -0.9997
usemtl Material.011
s 1
f 46/46/46 47/47/47 48/48/48 49/49/49
f 47/47/47 50/50/50 51/51/51 48/48/48
f 52/52/52 53/53/53 47/47/47 46/46/46
f 53/53/53 54/54/54 50/50/50 47/47/47
o SM_Grass_01_Plane.003_SM_Grass_01_Plane.000
v 0.278745 0.320360 0.037830
v 0.319148 0.297529 -0.072328
v 0.338895 0.142350 -0.115619
v 0.278514 0.149531 0.038244
v 0.329301 0.000937 -0.070236
v 0.280938 0.003050 0.039302
v 0.242824 0.294651 0.139737
v 0.230986 0.214575 0.179903
v 0.242576 0.004399 0.144263
vt 0.235426 0.360670
vt 0.421843 0.335861
vt 0.496751 0.176405
vt 0.236509 0.183121
vt 0.424965 0.029661
vt 0.237435 0.031224
vt 0.069876 0.333268
vt 0.003523 0.250823
vt 0.062427 0.032445
vn -0.9405 -0.0080 -0.3398
vn -0.9346 -0.0092 -0.3557
vn -0.9294 -0.0242 -0.3684
vn -0.9378 -0.0146 -0.3469
vn -0.9241 -0.0383 -0.3802
vn -0.9349 -0.0220 -0.3543
vn -0.9463 -0.0067 -0.3231
vn -0.9457 -0.0062 -0.3249
vn -0.9448 -0.0054 -0.3276
usemtl Material.083
s 1
f 55/55/55 56/56/56 57/57/57 58/58/58
f 58/58/58 57/57/57 59/59/59 60/60/60
f 61/61/61 55/55/55 58/58/58 62/62/62
f 62/62/62 58/58/58 60/60/60 63/63/63
o SM_Grass_01_Plane.004_SM_Grass_01_Plane.000
v 0.197493 0.317729 -0.194886
v 0.111879 0.295085 -0.273700
v 0.079701 0.141181 -0.308219
v 0.197787 0.148303 -0.194516
v 0.117648 0.000929 -0.282209
v 0.199676 0.003025 -0.196336
v 0.277250 0.292231 -0.123307
v 0.309565 0.212813 -0.097220
v 0.281304 0.004362 -0.121362
vt 0.235426 0.360670
vt 0.421843 0.335861
vt 0.496751 0.176405
vt 0.236509 0.183121
vt 0.424965 0.029661
vt 0.237435 0.031224
vt 0.069876 0.333268
vt 0.003523 0.250823
vt 0.062427 0.032445
vn -0.6737 -0.0080 0.7390
vn -0.6861 -0.0092 0.7274
vn -0.6958 -0.0242 0.7178
vn -0.6792 -0.0146 0.7338
vn -0.7048 -0.0383 0.7084
vn -0.6850 -0.0220 0.7282
vn -0.6606 -0.0067 0.7507
vn -0.6620 -0.0062 0.7495
vn -0.6641 -0.0054 0.7476
usemtl Material.085
s 1
f 64/64/64 65/65/65 66/66/66 67/67/67
f 67/67/67 66/66/66 68/68/68 69/69/69
f 70/70/70 64/64/64 67/67/67 71/71/71
f 71/71/71 67/67/67 69/69/69 72/72/72
o SM_Grass_01_Plane.002_SM_Grass_01_Plane.007
v 0.083867 0.317729 -0.033855
v 0.084222 0.148303 -0.033546
v -0.052635 0.141181 -0.123784
v -0.014697 0.295085 -0.095718
v 0.085748 0.003025 -0.035680
v -0.010578 0.000929 -0.105138
v 0.175348 0.292231 0.021961
v 0.211883 0.212813 0.041711
v 0.179689 0.004362 0.023134
vt 0.235426 0.360670
vt 0.236509 0.183121
vt 0.496751 0.176405
vt 0.421843 0.335861
vt 0.237435 0.031224
vt 0.424965 0.029661
vt 0.069876 0.333268
vt 0.003523 0.250823
vt 0.062427 0.032445
vn 0.5275 0.0080 -0.8495
vn 0.5339 0.0146 -0.8454
vn 0.5531 0.0242 -0.8327
vn 0.5418 0.0092 -0.8404
vn 0.5405 0.0220 -0.8410
vn 0.5636 0.0383 -0.8252
vn 0.5124 0.0067 -0.8587
vn 0.5140 0.0062 -0.8578
vn 0.5165 0.0054 -0.8563
usemtl Material.009
s 1
f 73/73/73 74/74/74 75/75/75 76/76/76
f 74/74/74 77/77/77 78/78/78 75/75/75
f 79/79/79 80/80/80 74/74/74 73/73/73
f 80/80/80 81/81/81 77/77/77 74/74/74
o SM_Grass_01_Plane.001_SM_Grass_01_Plane.006
v -0.145007 0.480185 -0.109226
v -0.145212 0.224131 -0.108545
v -0.106398 0.213367 -0.353233
v -0.121357 0.445964 -0.283498
v -0.141322 0.004572 -0.107777
v -0.105822 0.001404 -0.283708
v -0.164755 0.441649 0.051523
v -0.169143 0.321625 0.114137
v -0.163660 0.006593 0.058230
vt 0.235426 0.360670
vt 0.236509 0.183121
vt 0.496751 0.176405
vt 0.421843 0.335861
vt 0.237435 0.031224
vt 0.424965 0.029661
vt 0.069876 0.333268
vt 0.003523 0.250823
vt 0.062427 0.032445
vn 0.9915 0.0080 0.1296
vn 0.9904 0.0146 0.1372
vn 0.9868 0.0242 0.1600
vn 0.9892 0.0092 0.1465
vn 0.9892 0.0220 0.1451
vn 0.9842 0.0383 0.1726
vn 0.9937 0.0067 0.1122
vn 0.9935 0.0062 0.1140
vn 0.9931 0.0054 0.1168
usemtl Material.008
s 1
f 82/82/82 83/83/83 84/84/84 85/85/85
f 83/83/83 86/86/86 87/87/87 84/84/84
f 88/88/88 89/89/89 83/83/83 82/82/82
f 89/89/89 90/90/90 86/86/86 83/83/83
