# Blender v2.79 (sub 0) OBJ File: ''
# www.blender.org
mtllib garage0.mtl
o Building_meshId2_name
v 3.931567 1.273737 -0.604856
v 3.931567 3.088309 -0.604856
v 3.689622 1.273737 -0.604856
v 3.689622 3.088309 -0.604856
v 3.931567 3.088309 -0.604856
v 3.931567 3.088309 0.604856
v 3.689622 3.088309 -0.604856
v 3.689622 3.088309 0.604856
v 3.931567 3.088309 0.604856
v 3.931567 1.273737 0.604856
v 3.689622 3.088309 0.604856
v 3.689622 1.273737 0.604856
v 3.931567 1.273737 0.604856
v 3.931567 1.273737 -0.604856
v 3.689622 1.273737 0.604856
v 3.689622 1.273737 -0.604856
v 3.689622 1.273737 0.604856
v 3.689622 1.273737 -0.604856
v 3.689622 3.088309 0.604856
v 3.689622 3.088309 -0.604856
v -1.082695 0.064025 2.116996
v -1.082695 0.064025 2.419424
v -1.082695 3.693165 2.116999
v -1.082695 3.693165 2.419427
v -0.659292 0.064025 2.419424
v -0.659292 0.064025 2.116996
v -0.659292 3.693165 2.419427
v -0.659292 3.693165 2.116999
v -0.659292 3.693165 2.116999
v 3.326711 3.693165 2.116999
v -0.659292 3.693165 2.419427
v 3.326711 3.693165 2.419427
v -1.082695 3.693165 2.419427
v -3.326711 3.693165 2.419427
v -1.082695 3.693165 2.116999
v -3.326711 3.693165 2.116999
v -3.326711 0.064025 2.116996
v -3.326711 3.693165 2.116999
v -3.326711 0.064025 2.419424
v -3.326711 3.693165 2.419427
v 3.326711 3.693165 2.116999
v 3.326711 0.064025 2.116996
v 3.326711 3.693165 2.419427
v 3.326711 0.064025 2.419424
v 3.326711 0.064025 2.116996
v 3.326711 3.693165 2.116999
v 3.629139 0.064025 2.116996
v 3.629139 4.298020 2.116999
v -0.659292 3.693165 2.116999
v -3.629139 4.298020 2.116999
v -1.082695 3.693165 2.116999
v -3.326711 3.693165 2.116999
v -0.659292 0.064025 2.116996
v -1.082695 0.064025 2.116996
v -3.326711 0.064025 2.116996
v -3.629139 0.064025 2.116996
v 3.629139 0.064025 -2.116999
v 3.629139 0.064025 2.116996
v 3.629139 4.298021 -2.116996
v 3.629139 4.298020 2.116999
v -3.629139 0.064025 -2.116999
v 3.629139 0.064025 -2.116999
v -3.629139 4.298021 -2.116996
v 3.629139 4.298021 -2.116996
v -3.629139 0.064025 2.116996
v -3.629139 0.064025 -2.116999
v -3.629139 4.298020 2.116999
v -3.629139 4.298021 -2.116996
v -3.931567 0.064025 -2.419427
v -3.931567 0.064025 2.419424
v -3.931567 4.298021 -2.419424
v -3.931567 4.298020 2.419427
v 3.931567 0.064025 -2.419427
v -3.931567 0.064025 -2.419427
v 3.931567 4.298021 -2.419424
v -3.931567 4.298021 -2.419424
v 3.931567 1.273737 -0.604856
v 3.931567 0.064025 -2.419427
v 3.931567 3.088309 -0.604856
v 3.931567 4.298021 -2.419424
v 3.931567 4.298020 2.419427
v 3.931567 1.273737 0.604856
v 3.931567 0.064025 2.419424
v 3.931567 3.088309 0.604856
v 3.326711 0.064025 2.419424
v 3.931567 0.064025 2.419424
v 3.326711 3.693165 2.419427
v 3.931567 4.298020 2.419427
v -0.659292 3.693165 2.419427
v -3.931567 4.298020 2.419427
v -1.082695 3.693165 2.419427
v -3.326711 3.693165 2.419427
v -3.931567 0.064025 2.419424
v -3.326711 0.064025 2.419424
v -1.082695 0.064025 2.419424
v -0.659292 0.064025 2.419424
vt 0.419542 0.783416
vt 0.312589 0.783416
vt 0.419542 0.769156
vt 0.312589 0.769156
vt 0.563328 0.783416
vt 0.492026 0.783416
vt 0.563328 0.769156
vt 0.492026 0.769156
vt 0.311998 0.783416
vt 0.205045 0.783416
vt 0.311998 0.769156
vt 0.205045 0.769156
vt 0.491435 0.783416
vt 0.420133 0.783416
vt 0.491435 0.769156
vt 0.420133 0.769156
vt 0.071598 0.857692
vt 0.000296 0.857692
vt 0.071598 0.750739
vt 0.000296 0.750739
vt 0.875517 0.500591
vt 0.893343 0.500591
vt 0.875517 0.714497
vt 0.893343 0.714497
vt 0.857101 0.500591
vt 0.874926 0.500591
vt 0.857101 0.714497
vt 0.874926 0.714497
vt 0.072189 0.750739
vt 0.307128 0.750739
vt 0.072189 0.768565
vt 0.307128 0.768565
vt 0.204454 0.786981
vt 0.072189 0.786981
vt 0.204454 0.769156
vt 0.072189 0.769156
vt 0.307720 0.750739
vt 0.521625 0.750739
vt 0.307720 0.768565
vt 0.521625 0.768565
vt 0.522216 0.750739
vt 0.736122 0.750739
vt 0.522216 0.768565
vt 0.736122 0.768565
vt 0.446524 0.500591
vt 0.446524 0.714497
vt 0.428698 0.500591
vt 0.428698 0.750148
vt 0.681463 0.714497
vt 0.856509 0.750148
vt 0.706419 0.714497
vt 0.838684 0.714497
vt 0.681463 0.500591
vt 0.706419 0.500591
vt 0.838684 0.500591
vt 0.856510 0.500591
vt 0.750148 0.000296
vt 0.999704 0.000296
vt 0.750148 0.249852
vt 0.999704 0.249852
vt 0.000296 0.500591
vt 0.428107 0.500591
vt 0.000296 0.750148
vt 0.428107 0.750148
vt 0.750148 0.250443
vt 0.999704 0.250443
vt 0.750148 0.500000
vt 0.999704 0.500000
vt 0.749557 0.249852
vt 0.464349 0.249852
vt 0.749557 0.000296
vt 0.464349 0.000296
vt 0.463758 0.249852
vt 0.000296 0.249852
vt 0.463758 0.000296
vt 0.000296 0.000296
vt 0.571302 0.428698
vt 0.464349 0.500000
vt 0.571302 0.321745
vt 0.464349 0.250443
vt 0.749557 0.250443
vt 0.642604 0.428698
vt 0.749557 0.500000
vt 0.642604 0.321745
vt 0.035946 0.500000
vt 0.000296 0.500000
vt 0.035946 0.286094
vt 0.000296 0.250443
vt 0.270886 0.286094
vt 0.463758 0.250443
vt 0.295842 0.286094
vt 0.428107 0.286094
vt 0.463758 0.500000
vt 0.428107 0.500000
vt 0.295842 0.500000
vt 0.270886 0.500000
vn 0.0000 -0.0000 1.0000
vn 0.0000 -1.0000 0.0000
vn 0.0000 0.0000 -1.0000
vn 0.0000 1.0000 0.0000
vn 1.0000 0.0000 0.0000
vn -1.0000 0.0000 0.0000
usemtl Material.001
s off
f 1/1/1 2/2/1 3/3/1
f 3/3/1 2/2/1 4/4/1
f 5/5/2 6/6/2 7/7/2
f 7/7/2 6/6/2 8/8/2
f 9/9/3 10/10/3 11/11/3
f 11/11/3 10/10/3 12/12/3
f 13/13/4 14/14/4 15/15/4
f 15/15/4 14/14/4 16/16/4
f 17/17/5 18/18/5 19/19/5
f 19/19/5 18/18/5 20/20/5
f 21/21/6 22/22/6 23/23/6
f 23/23/6 22/22/6 24/24/6
f 25/25/5 26/26/5 27/27/5
f 27/27/5 26/26/5 28/28/5
f 29/29/2 30/30/2 31/31/2
f 31/31/2 30/30/2 32/32/2
f 33/33/2 34/34/2 35/35/2
f 35/35/2 34/34/2 36/36/2
f 37/37/5 38/38/5 39/39/5
f 39/39/5 38/38/5 40/40/5
f 41/41/6 42/42/6 43/43/6
f 43/43/6 42/42/6 44/44/6
f 45/45/3 46/46/3 47/47/3
f 47/47/3 46/46/3 48/48/3
f 48/48/3 46/46/3 49/49/3
f 48/48/3 49/49/3 50/50/3
f 50/50/3 49/49/3 51/51/3
f 50/50/3 51/51/3 52/52/3
f 53/53/3 54/54/3 49/49/3
f 49/49/3 54/54/3 51/51/3
f 55/55/3 56/56/3 52/52/3
f 52/52/3 56/56/3 50/50/3
f 57/57/6 58/58/6 59/59/6
f 59/59/6 58/58/6 60/60/6
f 61/61/1 62/62/1 63/63/1
f 63/63/1 62/62/1 64/64/1
f 65/65/5 66/66/5 67/67/5
f 67/67/5 66/66/5 68/68/5
f 69/69/6 70/70/6 71/71/6
f 71/71/6 70/70/6 72/72/6
f 73/73/3 74/74/3 75/75/3
f 75/75/3 74/74/3 76/76/3
f 77/77/5 78/78/5 79/79/5
f 79/79/5 78/78/5 80/80/5
f 79/79/5 80/80/5 81/81/5
f 77/77/5 82/82/5 78/78/5
f 78/78/5 82/82/5 83/83/5
f 83/83/5 82/82/5 84/84/5
f 83/83/5 84/84/5 81/81/5
f 81/81/5 84/84/5 79/79/5
f 85/85/1 86/86/1 87/87/1
f 87/87/1 86/86/1 88/88/1
f 87/87/1 88/88/1 89/89/1
f 89/89/1 88/88/1 90/90/1
f 89/89/1 90/90/1 91/91/1
f 91/91/1 90/90/1 92/92/1
f 92/92/1 90/90/1 93/93/1
f 92/92/1 93/93/1 94/94/1
f 95/95/1 96/96/1 91/91/1
f 91/91/1 96/96/1 89/89/1
o door_and_windows_meshId1_name
v -1.088741 0.064025 2.116996
v -3.326711 0.064025 2.116996
v -1.088741 3.693165 2.116999
v -3.326711 3.693165 2.116999
v -3.326711 0.064025 2.147241
v -3.326711 3.693165 2.147241
v -3.326711 0.064025 2.116996
v -3.326711 3.693165 2.116999
v -3.326711 0.064025 2.147241
v -1.088741 0.064025 2.147241
v -3.326711 3.693165 2.147241
v -1.088741 3.693165 2.147241
v -1.088741 0.064025 2.116996
v -1.088741 3.693165 2.116999
v -1.088741 0.064025 2.147241
v -1.088741 3.693165 2.147241
v -1.088741 3.693165 2.116999
v -3.326711 3.693165 2.116999
v -1.088741 3.693165 2.147241
v -3.326711 3.693165 2.147241
v -3.326711 0.064025 2.116996
v -1.088741 0.064025 2.116996
v -3.326711 0.064025 2.147241
v -1.088741 0.064025 2.147241
v 3.326711 0.064025 2.153288
v 3.326711 3.693165 2.153288
v 3.326711 0.064025 2.183533
v 3.326711 3.693165 2.183533
v 3.326711 0.064025 2.153288
v -0.659292 0.064025 2.153288
v 3.326711 3.693165 2.153288
v -0.659292 3.693165 2.153288
v -0.659292 0.064025 2.183533
v -0.659292 3.693165 2.183533
v -0.659292 0.064025 2.153288
v -0.659292 3.693165 2.153288
v -0.659292 0.064025 2.183533
v 3.326711 0.064025 2.183533
v -0.659292 3.693165 2.183533
v 3.326711 3.693165 2.183533
v 3.326711 3.693165 2.153288
v -0.659292 3.693165 2.153288
v 3.326711 3.693165 2.183533
v -0.659292 3.693165 2.183533
v -0.659292 0.064025 2.153288
v 3.326711 0.064025 2.153288
v -0.659292 0.064025 2.183533
v 3.326711 0.064025 2.183533
v 3.901326 1.273737 -0.604856
v 3.901326 1.273737 0.604856
v 3.901326 3.088309 -0.604856
v 3.901326 3.088309 0.604856
v 3.931567 1.273737 0.604856
v 3.931567 3.088309 0.604856
v 3.901326 1.273737 0.604856
v 3.901326 3.088309 0.604856
v 3.931567 1.273737 0.604856
v 3.931567 1.273737 -0.604856
v 3.931567 3.088309 0.604856
v 3.931567 3.088309 -0.604856
v 3.901326 1.273737 -0.604856
v 3.901326 3.088309 -0.604856
v 3.931567 1.273737 -0.604856
v 3.931567 3.088309 -0.604856
v 3.931567 3.088309 0.604856
v 3.931567 3.088309 -0.604856
v 3.901326 3.088309 0.604856
v 3.901326 3.088309 -0.604856
v 3.931567 1.273737 -0.604856
v 3.931567 1.273737 0.604856
v 3.901326 1.273737 -0.604856
v 3.901326 1.273737 0.604856
v -0.659292 0.064025 2.147241
v 3.326711 0.064025 2.147241
v -0.659292 3.693165 2.147241
v 3.326711 3.693165 2.147241
v 3.326711 0.064025 2.116996
v 3.326711 3.693165 2.116999
v 3.326711 0.064025 2.147241
v 3.326711 3.693165 2.147241
v 3.326711 0.064025 2.116996
v -0.659292 0.064025 2.116996
v 3.326711 3.693165 2.116999
v -0.659292 3.693165 2.116999
v -0.659292 0.064025 2.147241
v -0.659292 3.693165 2.147241
v -0.659292 0.064025 2.116996
v -0.659292 3.693165 2.116999
v -0.659292 3.693165 2.147241
v 3.326711 3.693165 2.147241
v -0.659292 3.693165 2.116999
v 3.326711 3.693165 2.116999
v 3.326711 0.064025 2.147241
v -0.659292 0.064025 2.147241
v 3.326711 0.064025 2.116996
v -0.659292 0.064025 2.116996
vt 0.767400 0.349546
vt 0.982444 0.349546
vt 0.767400 0.698268
vt 0.982444 0.698268
vt 0.992813 0.349546
vt 0.992813 0.698268
vt 0.989907 0.349546
vt 0.989907 0.698268
vt 0.767400 0.000275
vt 0.982444 0.000275
vt 0.767400 0.348996
vt 0.982444 0.348996
vt 0.999725 0.349546
vt 0.999725 0.698268
vt 0.996819 0.349546
vt 0.996819 0.698268
vt 0.240218 0.698818
vt 0.240218 0.913862
vt 0.237312 0.698818
vt 0.237312 0.913862
vt 0.233856 0.913862
vt 0.233856 0.698818
vt 0.236762 0.913862
vt 0.236762 0.698818
vt 0.992813 0.000275
vt 0.992813 0.348996
vt 0.989907 0.000275
vt 0.989907 0.348996
vt 0.000275 0.349546
vt 0.383287 0.349546
vt 0.000275 0.698268
vt 0.383287 0.698268
vt 0.996269 0.349546
vt 0.996269 0.698268
vt 0.993363 0.349546
vt 0.993363 0.698268
vt 0.383837 0.349546
vt 0.766849 0.349546
vt 0.383837 0.698268
vt 0.766849 0.698268
vt 0.985900 0.383837
vt 0.985900 0.766849
vt 0.982994 0.383837
vt 0.982994 0.766849
vt 0.982994 0.383287
vt 0.982994 0.000275
vt 0.985900 0.383287
vt 0.985900 0.000275
vt 0.117066 0.698818
vt 0.233306 0.698818
vt 0.117066 0.873178
vt 0.233306 0.873178
vt 0.247130 0.698818
vt 0.247130 0.873178
vt 0.244224 0.698818
vt 0.244224 0.873178
vt 0.000275 0.698818
vt 0.116515 0.698818
vt 0.000275 0.873178
vt 0.116515 0.873178
vt 0.243674 0.698818
vt 0.243674 0.873178
vt 0.240768 0.698818
vt 0.240768 0.873178
vt 0.364471 0.698818
vt 0.480712 0.698818
vt 0.364471 0.701724
vt 0.480712 0.701724
vt 0.247681 0.698818
vt 0.363921 0.698818
vt 0.247681 0.701724
vt 0.363921 0.701724
vt 0.000275 0.000275
vt 0.383287 0.000275
vt 0.000275 0.348996
vt 0.383287 0.348996
vt 0.996269 0.000275
vt 0.996269 0.348996
vt 0.993363 0.000275
vt 0.993363 0.348996
vt 0.383837 0.000275
vt 0.766849 0.000275
vt 0.383837 0.348996
vt 0.766849 0.348996
vt 0.999725 0.000275
vt 0.999725 0.348996
vt 0.996819 0.000275
vt 0.996819 0.348996
vt 0.986451 0.766849
vt 0.986451 0.383837
vt 0.989357 0.766849
vt 0.989357 0.383837
vt 0.989357 0.000275
vt 0.989357 0.383287
vt 0.986451 0.000275
vt 0.986451 0.383287
vn 0.0000 0.0000 -1.0000
vn -1.0000 0.0000 0.0000
vn 0.0000 0.0000 1.0000
vn 1.0000 0.0000 0.0000
vn 0.0000 1.0000 0.0000
vn 0.0000 -1.0000 0.0000
usemtl Material.003
s off
f 97/97/7 98/98/7 99/99/7
f 99/99/7 98/98/7 100/100/7
f 101/101/8 102/102/8 103/103/8
f 103/103/8 102/102/8 104/104/8
f 105/105/9 106/106/9 107/107/9
f 107/107/9 106/106/9 108/108/9
f 109/109/10 110/110/10 111/111/10
f 111/111/10 110/110/10 112/112/10
f 113/113/11 114/114/11 115/115/11
f 115/115/11 114/114/11 116/116/11
f 117/117/12 118/118/12 119/119/12
f 119/119/12 118/118/12 120/120/12
f 121/121/10 122/122/10 123/123/10
f 123/123/10 122/122/10 124/124/10
f 125/125/7 126/126/7 127/127/7
f 127/127/7 126/126/7 128/128/7
f 129/129/8 130/130/8 131/131/8
f 131/131/8 130/130/8 132/132/8
f 133/133/9 134/134/9 135/135/9
f 135/135/9 134/134/9 136/136/9
f 137/137/11 138/138/11 139/139/11
f 139/139/11 138/138/11 140/140/11
f 141/141/12 142/142/12 143/143/12
f 143/143/12 142/142/12 144/144/12
f 145/145/8 146/146/8 147/147/8
f 147/147/8 146/146/8 148/148/8
f 149/149/9 150/150/9 151/151/9
f 151/151/9 150/150/9 152/152/9
f 153/153/10 154/154/10 155/155/10
f 155/155/10 154/154/10 156/156/10
f 157/157/7 158/158/7 159/159/7
f 159/159/7 158/158/7 160/160/7
f 161/161/11 162/162/11 163/163/11
f 163/163/11 162/162/11 164/164/11
f 165/165/12 166/166/12 167/167/12
f 167/167/12 166/166/12 168/168/12
f 169/169/9 170/170/9 171/171/9
f 171/171/9 170/170/9 172/172/9
f 173/173/10 174/174/10 175/175/10
f 175/175/10 174/174/10 176/176/10
f 177/177/7 178/178/7 179/179/7
f 179/179/7 178/178/7 180/180/7
f 181/181/8 182/182/8 183/183/8
f 183/183/8 182/182/8 184/184/8
f 185/185/11 186/186/11 187/187/11
f 187/187/11 186/186/11 188/188/11
f 189/189/12 190/190/12 191/191/12
f 191/191/12 190/190/12 192/192/12
o Floor_and_ceiling_meshId0_name
v -3.931567 4.298021 -2.419424
v -3.931567 4.298020 2.419427
v -3.931567 4.660935 -2.419424
v -3.931567 4.660935 2.419427
v 3.931567 4.298021 -2.419424
v -3.931567 4.298021 -2.419424
v 3.931567 4.660935 -2.419424
v -3.931567 4.660935 -2.419424
v 3.931567 4.298020 2.419427
v 3.931567 4.298021 -2.419424
v 3.931567 4.660935 2.419427
v 3.931567 4.660935 -2.419424
v -3.931567 4.298020 2.419427
v 3.931567 4.298020 2.419427
v -3.931567 4.660935 2.419427
v 3.931567 4.660935 2.419427
v 3.931567 4.660935 2.419427
v 3.931567 4.660935 -2.419424
v -3.931567 4.660935 2.419427
v -3.931567 4.660935 -2.419424
v -3.931567 4.298020 2.419427
v -3.931567 4.298021 -2.419424
v 3.931567 4.298020 2.419427
v 3.931567 4.298021 -2.419424
v 3.931567 0.065237 -2.419427
v 3.931567 0.065237 2.116996
v 3.931567 0.003538 -2.419427
v 3.931567 0.003538 2.116996
v -3.931567 0.065237 -2.419427
v 3.931567 0.065237 -2.419427
v -3.931567 0.003538 -2.419427
v 3.931567 0.003538 -2.419427
v -3.931567 0.065237 2.116996
v -3.931567 0.065237 -2.419427
v -3.931567 0.003538 2.116996
v -3.931567 0.003538 -2.419427
v 3.931567 0.065237 2.116996
v -3.931567 0.065237 2.116996
v 3.931567 0.003538 2.116996
v -3.931567 0.003538 2.116996
v 3.931567 0.065237 2.116996
v 3.931567 0.065237 -2.419427
v -3.931567 0.065237 2.116996
v -3.931567 0.065237 -2.419427
vt 0.819878 0.934414
vt 0.213419 0.934414
vt 0.819878 0.888930
vt 0.213419 0.888930
vt 0.001185 0.611625
vt 0.986679 0.611625
vt 0.001185 0.657109
vt 0.986679 0.657109
vt 0.213419 0.842774
vt 0.819878 0.842774
vt 0.213419 0.888258
vt 0.819878 0.888258
vt 0.986681 0.610953
vt 0.001185 0.610953
vt 0.986681 0.565469
vt 0.001185 0.565469
vt 0.317862 0.000176
vt 0.635197 0.000176
vt 0.317862 0.515845
vt 0.635197 0.515845
vt 0.000176 0.000176
vt 0.317510 0.000176
vt 0.000176 0.515845
vt 0.317510 0.515845
vt 0.806463 0.842102
vt 0.213419 0.842103
vt 0.806463 0.834689
vt 0.213419 0.834689
vt 0.996484 0.540474
vt 0.001185 0.540474
vt 0.996484 0.532818
vt 0.001185 0.532818
vt 0.310491 0.520075
vt 0.000176 0.520075
vt 0.310491 0.516196
vt 0.000176 0.516196
vt 0.996484 0.548802
vt 0.001185 0.548802
vt 0.996484 0.541146
vt 0.001185 0.541146
vt 0.942806 0.499470
vt 0.635548 0.499470
vt 0.942806 0.000176
vt 0.635548 0.000176
vn -1.0000 0.0000 0.0000
vn 0.0000 0.0000 -1.0000
vn 1.0000 0.0000 0.0000
vn 0.0000 0.0000 1.0000
vn 0.0000 1.0000 0.0000
vn 0.0000 -1.0000 0.0000
usemtl Material.002
s off
f 193/193/13 194/194/13 195/195/13
f 195/195/13 194/194/13 196/196/13
f 197/197/14 198/198/14 199/199/14
f 199/199/14 198/198/14 200/200/14
f 201/201/15 202/202/15 203/203/15
f 203/203/15 202/202/15 204/204/15
f 205/205/16 206/206/16 207/207/16
f 207/207/16 206/206/16 208/208/16
f 209/209/17 210/210/17 211/211/17
f 211/211/17 210/210/17 212/212/17
f 213/213/18 214/214/18 215/215/18
f 215/215/18 214/214/18 216/216/18
f 217/217/15 218/218/15 219/219/15
f 219/219/15 218/218/15 220/220/15
f 221/221/14 222/222/14 223/223/14
f 223/223/14 222/222/14 224/224/14
f 225/225/13 226/226/13 227/227/13
f 227/227/13 226/226/13 228/228/13
f 229/229/16 230/230/16 231/231/16
f 231/231/16 230/230/16 232/232/16
f 233/233/17 234/234/17 235/235/17
f 235/235/17 234/234/17 236/236/17
