# Blender v2.79 (sub 0) OBJ File: ''
# www.blender.org
mtllib wrench0.mtl
o g_pCube2_group1_pCube2_group1
v 0.831427 0.015272 0.088021
v 0.831427 0.015272 0.101186
v 0.831427 -0.015272 0.101186
v 0.831427 -0.015272 0.088021
v 0.831427 0.015272 -0.062642
v 0.831427 0.015272 -0.052050
v 0.831427 -0.015272 -0.052050
v 0.831427 -0.015272 -0.062642
v 0.716199 0.015272 0.024968
v 0.716199 0.015272 0.057883
v 0.716199 -0.015272 0.057883
v 0.716199 -0.015272 0.024968
v 0.716199 0.015272 -0.073779
v 0.716199 0.015272 -0.040863
v 0.716199 -0.015272 -0.040863
v 0.716199 -0.015272 -0.073779
v 0.695983 0.015272 -0.007948
v 0.695983 -0.015272 -0.007948
v 0.827795 -0.015272 0.083459
v 0.827795 0.015272 0.083459
v 0.716199 0.015272 0.097025
v 0.739204 0.015272 0.118272
v 0.827345 0.015272 0.105348
v 0.739204 -0.015272 0.118272
v 0.827345 -0.015272 0.105348
v 0.826868 0.015272 -0.048415
v 0.826868 -0.015272 -0.048415
v 0.828318 -0.015272 -0.067574
v 0.739433 -0.015272 -0.109902
v 0.739433 0.015272 -0.109902
v 0.828318 0.015272 -0.067574
v -0.817011 0.015272 -0.101856
v -0.817011 0.015272 -0.111441
v -0.817011 -0.015272 -0.111441
v -0.817011 -0.015272 -0.101856
v -0.817011 0.015272 0.055988
v -0.817011 0.015272 0.044266
v -0.817011 -0.015272 0.044266
v -0.817011 -0.015272 0.055988
v -0.703200 0.015272 0.063791
v -0.703200 0.015272 0.037236
v -0.703200 -0.015272 0.037236
v -0.703200 -0.015272 0.063791
v -0.684206 0.015272 -0.001142
v -0.684206 -0.015272 -0.001142
v -0.703200 0.015272 -0.039520
v -0.703200 -0.015272 -0.039520
v -0.703200 0.015272 -0.072955
v -0.703200 -0.015272 -0.072955
v -0.812922 -0.015272 -0.096783
v -0.812922 0.015272 -0.096783
v -0.726205 0.015272 -0.117548
v -0.812282 0.015272 -0.115920
v -0.726205 -0.015272 -0.117548
v -0.812282 -0.015272 -0.115920
v -0.811943 0.015272 0.040177
v -0.811943 -0.015272 0.040177
v -0.726617 -0.015272 0.102852
v -0.813536 -0.015272 0.061498
v -0.726617 0.015272 0.102852
v -0.813536 0.015272 0.061498
v 0.425307 -0.028336 -0.029786
v 0.212778 -0.028336 -0.029786
v 0.212778 0.000000 -0.051699
v 0.425307 0.000000 -0.051699
v 0.000249 -0.028336 -0.029786
v 0.000249 0.000000 -0.051699
v -0.212280 -0.028336 -0.029786
v -0.212280 0.000000 -0.051699
v -0.424809 -0.028336 -0.029786
v -0.424809 0.000000 -0.051699
v -0.424809 0.028336 -0.029786
v -0.212280 0.028336 -0.029786
v 0.000249 0.028336 -0.029786
v 0.212778 0.028336 -0.029786
v 0.425307 0.028336 -0.029786
v 0.212778 0.028336 0.000000
v 0.425307 0.028336 0.000000
v 0.000249 0.028336 0.000000
v -0.212280 0.028336 0.000000
v -0.424809 0.028336 0.000000
v -0.424809 0.028336 0.029786
v -0.212280 0.028336 0.029786
v 0.000249 0.028336 0.029786
v 0.212778 0.028336 0.029786
v 0.425307 0.028336 0.029786
v 0.212778 -0.000000 0.051699
v 0.425307 -0.000000 0.051699
v 0.000249 -0.000000 0.051699
v -0.212280 -0.000000 0.051699
v -0.424809 -0.000000 0.051699
v -0.424809 -0.028336 0.029786
v -0.212280 -0.028336 0.029786
v 0.000249 -0.028336 0.029786
v 0.212778 -0.028336 0.029786
v 0.425307 -0.028336 0.029786
v 0.212778 -0.028336 -0.000000
v 0.425307 -0.028336 -0.000000
v 0.000249 -0.028336 -0.000000
v -0.212280 -0.028336 -0.000000
v -0.424809 -0.028336 -0.000000
v -0.600894 -0.028336 0.029786
v -0.600985 -0.026679 0.031068
v -0.602442 -0.000000 0.051699
v -0.661325 -0.000000 0.077046
v -0.669391 -0.028336 -0.000000
v -0.662389 -0.028336 0.078170
v -0.600894 -0.028336 -0.029786
v -0.662389 -0.028336 -0.078170
v 0.601827 -0.028336 0.029786
v 0.663552 -0.028336 0.076903
v 0.662559 -0.000000 0.075932
v 0.669888 -0.028336 -0.000000
v 0.605784 -0.028336 -0.000000
v 0.601827 -0.028336 -0.029786
v -0.669391 0.028336 0.000000
v -0.600894 0.028336 0.029786
v -0.605286 0.028336 0.000000
v 0.601827 0.028336 0.029786
v 0.663552 0.028336 0.076903
v 0.669888 0.028336 0.000000
v 0.603215 -0.000000 0.051699
v -0.661325 0.000000 -0.077046
v -0.600894 0.028336 -0.029786
v -0.602442 0.000000 -0.051699
v 0.601827 0.028336 -0.029786
v 0.663552 0.028336 -0.076903
v 0.662559 0.000000 -0.075932
v 0.605784 0.028336 0.000000
v 0.603215 0.000000 -0.051699
v 0.696459 0.020170 -0.104448
v 0.698177 0.019745 0.104380
v -0.683709 -0.021511 0.096886
v -0.703200 -0.015272 0.092334
v -0.683709 0.021511 0.096886
v -0.662389 0.028336 0.078170
v -0.686361 0.020663 -0.100553
v -0.703200 0.015272 -0.094618
v -0.662389 0.028336 -0.078170
v -0.597839 -0.028336 0.029786
v -0.595746 -0.028336 0.029786
v -0.601221 -0.028336 0.027572
v -0.605286 -0.028336 -0.000000
v 0.716199 0.015272 -0.099309
v 0.716199 -0.015272 0.097025
v -0.703200 0.015272 0.092334
v 0.696459 -0.020170 -0.104448
v 0.698177 -0.019745 0.104380
v -0.686361 -0.020663 -0.100553
v 0.716199 -0.015272 -0.099309
v -0.703200 -0.015272 -0.094618
v 0.663552 -0.028336 -0.076903
vt 0.259243 0.199226
vt 0.229346 0.198992
vt 0.229563 0.072941
vt 0.259613 0.073010
vt 0.722197 0.200066
vt 0.698111 0.200075
vt 0.698479 0.073602
vt 0.722624 0.073737
vt 0.405076 0.200048
vt 0.330050 0.199758
vt 0.330416 0.073138
vt 0.405262 0.073215
vt 0.629989 0.200077
vt 0.555116 0.200093
vt 0.555190 0.073223
vt 0.630188 0.073328
vt 0.480127 0.200112
vt 0.480195 0.073223
vt 0.270020 0.073032
vt 0.269632 0.199309
vt 0.056723 0.909615
vt 0.019810 0.903498
vt 0.000000 0.898804
vt 0.219875 0.198938
vt 0.188045 0.198911
vt 0.187785 0.072705
vt 0.220052 0.072913
vt 0.689821 0.200075
vt 0.690169 0.073562
vt 0.018175 0.760467
vt 0.000000 0.757692
vt 0.096331 0.765124
vt 0.071454 0.764322
vt 0.733879 0.073802
vt 0.830859 0.074472
vt 0.830855 0.200080
vt 0.733416 0.200062
vt 0.200907 0.449324
vt 0.181981 0.449253
vt 0.181801 0.339181
vt 0.200957 0.339264
vt 0.612209 0.450278
vt 0.588950 0.450283
vt 0.589272 0.339884
vt 0.612590 0.339999
vt 0.531996 0.450280
vt 0.479277 0.450278
vt 0.479386 0.339579
vt 0.532186 0.339670
vt 0.402999 0.450272
vt 0.403094 0.339540
vt 0.326651 0.450137
vt 0.326872 0.339502
vt 0.260180 0.449772
vt 0.260490 0.339399
vt 0.211080 0.339290
vt 0.210967 0.449388
vt -0.000000 0.945639
vt 0.052492 0.944686
vt 0.028418 0.952380
vt 0.173106 0.449256
vt 0.161904 0.449315
vt 0.161444 0.339020
vt 0.172841 0.339130
vt 0.580810 0.450282
vt 0.581112 0.339849
vt 0.034293 0.915726
vt 0.000000 0.909640
vt 0.055977 0.912537
vt 0.623565 0.340051
vt 0.706230 0.340394
vt 0.706242 0.450421
vt 0.623142 0.450278
vt 0.744695 0.858077
vt 0.744353 0.882800
vt 0.641191 0.881423
vt 0.641515 0.856691
vt 0.744025 0.907526
vt 0.640858 0.906143
vt 0.743696 0.932252
vt 0.640517 0.930864
vt 0.743360 0.956980
vt 0.640191 0.955597
vt 0.537013 0.954212
vt 0.537346 0.929494
vt 0.537674 0.904768
vt 0.538005 0.880041
vt 0.538348 0.855307
vt 0.483289 0.879298
vt 0.483617 0.854573
vt 0.482946 0.904033
vt 0.482618 0.928758
vt 0.482283 0.953478
vt 0.427557 0.952752
vt 0.427885 0.928026
vt 0.428213 0.903301
vt 0.428556 0.878566
vt 0.428887 0.853839
vt 0.325383 0.877186
vt 0.325719 0.852456
vt 0.325050 0.901905
vt 0.324721 0.926630
vt 0.324386 0.951361
vt 0.221217 0.949977
vt 0.221548 0.925252
vt 0.221875 0.900526
vt 0.222211 0.875796
vt 0.222540 0.851070
vt 0.167481 0.875062
vt 0.167810 0.850336
vt 0.167153 0.899788
vt 0.166817 0.924518
vt 0.166487 0.949243
vt 0.798427 0.932986
vt 0.798090 0.957714
vt 0.798756 0.908259
vt 0.799084 0.883534
vt 0.799424 0.858812
vt 0.839906 0.274605
vt 0.838196 0.280986
vt 0.817346 0.380181
vt 0.764073 0.395117
vt 0.183742 0.670012
vt 0.127290 0.678231
vt 0.035592 0.670851
vt 0.240193 0.678233
vt 0.331891 0.670855
vt 0.000000 0.000000
vt 0.101079 0.016756
vt 0.084814 0.136715
vt 0.052278 0.525132
vt 0.141695 0.517708
vt 0.198223 0.525882
vt 0.198223 0.518179
vt 0.254750 0.517699
vt 0.183740 0.686457
vt 0.127288 0.678243
vt 0.183739 0.678765
vt 0.839020 0.516385
vt 0.817257 0.410617
vt 0.141550 0.624795
vt 0.052226 0.617386
vt 0.198019 0.616625
vt 0.001383 0.274177
vt 0.026754 0.152957
vt 0.075019 0.395380
vt 0.002239 0.517699
vt 0.022241 0.411450
vt 0.240191 0.678233
vt 0.999867 0.274352
vt 0.898893 0.256933
vt 0.915846 0.137078
vt 0.254488 0.624795
vt 0.198019 0.624320
vt 0.000000 0.274352
vt 0.089934 0.290802
vt 1.000000 0.000012
vt 0.974006 0.121094
vt 0.844793 0.218616
vt 0.156260 0.216165
vt 0.102402 0.256411
vt 0.062611 0.625275
vt 0.112939 0.625020
vt 0.000000 0.647291
vt 0.008518 0.625550
vt 0.744968 0.837538
vt 0.799700 0.837810
vt 0.719310 0.471237
vt 0.749342 0.499343
vt 0.325993 0.831752
vt 0.222814 0.830532
vt 0.322241 0.731093
vt 0.258875 0.731420
vt 0.374447 0.712074
vt 0.363296 0.730880
vt 0.483899 0.833581
vt 0.429162 0.833300
vt 0.091984 0.499558
vt 0.128316 0.467641
vt 0.641790 0.835988
vt 0.538623 0.834768
vt 0.743086 0.977469
vt 0.639916 0.976265
vt 0.536747 0.974696
vt 0.482008 0.974476
vt 0.427287 0.973228
vt 0.324108 0.972027
vt 0.220940 0.970459
vt 0.220949 0.970110
vt 0.220951 0.969863
vt 0.226977 0.970557
vt 0.216872 0.970440
vt 0.166199 0.970240
vt 0.168097 0.829339
vt 0.797810 0.978707
vt 0.088078 0.571596
vt -0.000000 0.587615
vt 0.013873 0.571932
vt 0.000000 0.980630
vt 0.008564 0.978258
vt 0.029594 0.975462
vt 0.088171 0.570966
vt 0.013888 0.570636
vt 0.150636 0.571244
vt 0.087723 0.802585
vt 0.066360 0.801253
vt 0.178745 0.801414
vt 0.155324 0.802593
vt 0.000000 0.932736
vt 0.008585 0.928752
vt 0.032921 0.921369
vt 0.052492 0.960080
vt 0.028420 0.952381
vt 0.050906 0.953577
vt 0.844586 0.055564
vt 0.155263 0.056296
vt 0.719115 0.319074
vt 0.126816 0.321913
vt 0.396574 0.553421
vt 0.407191 0.570988
vt 0.386899 0.570588
vt 0.002597 0.972026
vt 0.011223 0.909640
vt 0.071281 0.853296
vt 0.108144 0.895561
vt -0.000000 0.895561
vt 0.002569 0.921058
vt 0.009102 0.912235
vt 0.000754 0.921058
vt 0.032496 0.932736
vt 0.025458 0.944345
vt 0.032493 0.972026
vt 0.025458 0.960416
vt 0.386495 0.571950
vt 0.396161 0.589099
vt 0.338095 0.571732
vt 0.150478 0.571314
vt 0.275694 0.571450
vt 0.213246 0.571383
vt 0.343812 0.617385
vt 0.212926 0.571276
vt 0.039566 0.980252
vt 0.035482 0.980630
vt 0.051254 0.978456
vt 0.048292 0.979092
vt 0.033708 0.898954
vt 0.311274 0.752218
vt 0.000000 0.772591
vt 0.109095 0.765124
vt 0.310068 0.765147
vt 0.130121 0.731674
vt 0.258531 0.740964
vt 0.344168 0.525109
vt 0.213150 0.571276
vt 0.275983 0.571097
vt 0.213470 0.571170
vt 0.338448 0.570810
vt -0.000000 0.554938
vt 0.013061 0.895561
vt 0.974023 0.153225
vt 0.898926 0.017272
vt 0.026539 0.120909
vt 0.183741 0.677705
vt 0.374447 0.644382
vt 0.258873 0.625044
vt 0.322239 0.625367
vt 0.363294 0.625576
vt 0.185709 0.624795
vt 0.035590 0.685630
vt 0.112941 0.731455
vt 0.185711 0.731674
vt 0.008520 0.730933
vt 0.000000 0.709193
vt 0.062613 0.731204
vt 0.331890 0.685604
vt 0.021891 0.380117
vt 0.000000 0.959116
vt 0.045661 0.952957
vt 0.034397 0.952381
vt 0.052407 0.911753
vt 0.037172 0.909840
vt 0.042061 0.910320
vt 0.186103 0.624814
vt 0.186105 0.731656
vt 0.054837 0.921132
vt 0.036684 0.926733
vt 0.041439 0.925495
vt 0.051434 0.922463
vt 0.034395 0.952381
vt 0.050905 0.951189
vt 0.045659 0.951808
vt 0.749548 0.290897
vt 0.029442 0.898024
vt 0.017026 0.895967
vt 0.131487 0.678192
vn 1.0000 0.0000 0.0000
vn 0.9559 0.0000 -0.2935
vn 0.9559 -0.0000 0.2935
vn 0.2234 0.0000 -0.9747
vn 0.1908 0.9816 0.0000
vn 0.0990 0.9949 -0.0180
vn 0.0262 0.9993 -0.0284
vn 0.1451 0.0000 0.9894
vn -0.0550 -0.0000 0.9985
vn -0.2234 0.0000 0.9747
vn -0.0000 -1.0000 -0.0000
vn 0.4299 0.0000 -0.9029
vn -1.0000 0.0000 0.0000
vn -0.9598 -0.0000 -0.2807
vn -0.9668 -0.0000 0.2557
vn -0.2122 0.0000 0.9772
vn -0.2260 0.9741 -0.0000
vn -0.0201 0.9996 0.0201
vn -0.0000 1.0000 0.0000
vn -0.0189 0.0000 -0.9998
vn 0.1660 0.0000 -0.9861
vn 0.2122 0.0000 -0.9772
vn -0.1225 -0.9925 -0.0000
vn -0.0640 -0.9877 -0.1424
vn -0.4296 0.0000 0.9030
vn 0.0000 -0.6117 -0.7911
vn 0.0000 -0.0000 -1.0000
vn 0.0000 0.6117 -0.7911
vn 0.0000 0.6117 0.7911
vn 0.0000 0.0000 1.0000
vn 0.0000 -0.6117 0.7911
vn 0.0633 -0.5772 0.8142
vn 0.1707 -0.5423 0.8226
vn 0.0741 -0.0000 0.9972
vn 0.5720 -0.0000 0.8203
vn -0.1878 -0.9822 -0.0013
vn -0.2940 -0.9558 0.0062
vn -0.2942 -0.9557 -0.0063
vn -0.0617 -0.5769 0.8145
vn -0.6112 0.0057 0.7914
vn -0.5560 -0.0000 0.8312
vn 0.2335 -0.9724 0.0038
vn 0.1549 -0.9879 -0.0065
vn -0.1878 0.9822 -0.0013
vn 0.0633 0.5772 0.8142
vn 0.2303 0.9731 0.0054
vn 0.1549 0.9879 -0.0065
vn -0.0617 0.5769 0.8145
vn -0.0707 0.0000 0.9975
vn 0.5839 0.0000 -0.8119
vn 0.0633 0.5772 -0.8142
vn 0.0741 -0.0000 -0.9972
vn -0.0617 0.5769 -0.8145
vn -0.6169 -0.0054 -0.7870
vn -0.5648 0.0000 -0.8252
vn 0.0633 -0.5772 -0.8142
vn 0.6330 0.0069 -0.7741
vn -0.0617 -0.5769 -0.8145
vn -0.0707 -0.0000 -0.9975
vn -0.6430 -0.0022 -0.7659
vn -0.4746 -0.0015 0.8802
vn -0.6112 -0.0058 0.7914
vn -0.3450 -0.9386 0.0055
vn -0.2998 -0.9537 -0.0235
vn -0.2250 -0.9741 -0.0225
vn 0.6614 -0.0034 0.7500
vn 0.6266 -0.0074 0.7793
vn -0.3468 0.9379 -0.0069
vn -0.2840 0.9567 0.0632
vn -0.1839 0.9824 0.0314
vn 0.6330 -0.0069 -0.7741
vn 0.5193 -0.0009 -0.8546
vn 0.2171 0.9743 -0.0605
vn 0.0489 0.9930 0.1072
vn 0.0989 0.9944 0.0383
vn 0.0676 0.9977 0.0000
vn 0.2148 -0.9767 0.0000
vn 0.1516 -0.9884 -0.0114
vn 0.2684 -0.9633 -0.0041
vn -0.0640 0.9877 -0.1424
vn -0.1650 0.9855 -0.0389
vn -0.0627 0.3825 -0.9218
vn -0.0201 -0.9996 0.0201
vn -0.1259 0.0000 -0.9920
vn -0.4746 0.0015 0.8802
vn 0.1377 0.0000 0.9905
vn 0.5193 0.0009 -0.8546
vn 0.2203 -0.9721 0.0804
vn 0.0489 -0.9930 0.1072
vn 0.1608 -0.9867 0.0217
vn 0.2257 0.9724 0.0599
vn 0.2058 -0.9746 -0.0883
vn 0.0262 -0.9993 -0.0284
vn -0.2948 0.9545 -0.0457
vn -0.2932 -0.9554 0.0357
vn -0.2447 -0.9695 0.0158
vn 0.7821 0.0000 -0.6232
vn 0.7821 0.0000 -0.6231
vn 0.7824 0.0000 -0.6228
vn 0.7134 -0.0000 0.7008
vn 0.7135 0.0000 0.7006
vn 0.6234 0.0000 0.7819
vn 0.6231 0.0000 0.7821
vn 0.8457 0.0000 -0.5337
vn 0.8456 0.0000 -0.5339
vn -0.7786 0.0000 0.6276
vn -0.6873 -0.0000 -0.7264
vn -0.6874 -0.0000 -0.7263
vn -0.6276 -0.0000 -0.7786
vn -0.6279 0.0000 -0.7783
vn -0.8454 0.0000 0.5341
vn 0.2711 0.9625 -0.0045
vn 0.2657 0.9641 -0.0029
vn 0.4609 0.8856 0.0577
vn 0.2291 0.9734 -0.0079
vn 0.1052 -0.9945 0.0000
vn 0.2323 -0.9726 -0.0057
vn 0.4609 -0.8856 0.0577
vn 0.2637 -0.9646 -0.0027
vn -0.6169 0.0054 -0.7870
vn -0.3433 -0.9392 -0.0063
vn -0.2732 -0.9620 -0.0000
vn -0.6617 -0.7497 0.0100
vn -0.2895 0.9571 0.0088
vn -0.3487 0.9372 0.0060
vn -0.6617 0.7497 0.0100
vn -0.2908 0.9568 -0.0084
vn 0.6266 0.0074 0.7793
vn 0.6614 0.0035 0.7501
vn -0.6430 0.0022 -0.7659
usemtl Material.001
s 1
f 1/1/1 2/2/1 3/3/1
f 3/3/1 4/4/1 1/1/1
f 5/5/1 6/6/1 7/7/1
f 7/7/1 8/8/1 5/5/1
f 9/9/2 10/10/1 11/11/1
f 11/11/1 12/12/2 9/9/2
f 13/13/1 14/14/3 15/15/3
f 15/15/3 16/16/1 13/13/1
f 14/14/3 17/17/1 18/18/1
f 18/18/1 15/15/3 14/14/3
f 17/17/1 9/9/2 12/12/2
f 12/12/2 18/18/1 17/17/1
f 19/19/4 11/11/4 10/10/4
f 10/10/4 20/20/4 19/19/4
f 10/21/5 21/22/6 22/23/7
f 23/24/8 22/25/9 24/26/9
f 24/26/9 25/27/8 23/24/8
f 26/28/10 13/13/10 16/16/10
f 16/16/10 27/29/10 26/28/10
f 7/30/11 27/31/11 28/32/11
f 28/32/11 8/33/11 7/30/11
f 28/34/12 29/35/12 30/36/12
f 30/36/12 31/37/12 28/34/12
f 32/38/13 33/39/13 34/40/13
f 34/40/13 35/41/13 32/38/13
f 36/42/13 37/43/13 38/44/13
f 38/44/13 39/45/13 36/42/13
f 40/46/13 41/47/14 42/48/14
f 42/48/14 43/49/13 40/46/13
f 41/47/14 44/50/13 45/51/13
f 45/51/13 42/48/14 41/47/14
f 44/50/13 46/52/15 47/53/15
f 47/53/15 45/51/13 44/50/13
f 46/52/15 48/54/13 49/55/13
f 49/55/13 47/53/15 46/52/15
f 50/56/16 49/55/16 48/54/16
f 48/54/16 51/57/16 50/56/16
f 48/58/17 52/59/18 51/60/19
f 53/61/20 52/62/21 54/63/21
f 54/63/21 55/64/20 53/61/20
f 56/65/22 40/46/22 43/49/22
f 43/49/22 57/66/22 56/65/22
f 43/67/23 58/68/24 57/69/11
f 59/70/25 58/71/25 60/72/25
f 60/72/25 61/73/25 59/70/25
f 62/74/26 63/75/26 64/76/27
f 64/76/27 65/77/27 62/74/26
f 63/75/26 66/78/26 67/79/27
f 67/79/27 64/76/27 63/75/26
f 66/78/26 68/80/26 69/81/27
f 69/81/27 67/79/27 66/78/26
f 68/80/26 70/82/26 71/83/27
f 71/83/27 69/81/27 68/80/26
f 69/81/27 71/83/27 72/84/28
f 72/84/28 73/85/28 69/81/27
f 67/79/27 69/81/27 73/85/28
f 73/85/28 74/86/28 67/79/27
f 64/76/27 67/79/27 74/86/28
f 74/86/28 75/87/28 64/76/27
f 65/77/27 64/76/27 75/87/28
f 75/87/28 76/88/28 65/77/27
f 76/88/19 75/87/19 77/89/19
f 77/89/19 78/90/19 76/88/19
f 75/87/19 74/86/19 79/91/19
f 79/91/19 77/89/19 75/87/19
f 74/86/19 73/85/19 80/92/19
f 80/92/19 79/91/19 74/86/19
f 73/85/19 72/84/19 81/93/19
f 81/93/19 80/92/19 73/85/19
f 80/92/19 81/93/19 82/94/19
f 82/94/19 83/95/19 80/92/19
f 79/91/19 80/92/19 83/95/19
f 83/95/19 84/96/19 79/91/19
f 77/89/19 79/91/19 84/96/19
f 84/96/19 85/97/19 77/89/19
f 78/90/19 77/89/19 85/97/19
f 85/97/19 86/98/19 78/90/19
f 86/98/29 85/97/29 87/99/30
f 87/99/30 88/100/30 86/98/29
f 85/97/29 84/96/29 89/101/30
f 89/101/30 87/99/30 85/97/29
f 84/96/29 83/95/29 90/102/30
f 90/102/30 89/101/30 84/96/29
f 83/95/29 82/94/29 91/103/30
f 91/103/30 90/102/30 83/95/29
f 90/102/30 91/103/30 92/104/31
f 92/104/31 93/105/31 90/102/30
f 89/101/30 90/102/30 93/105/31
f 93/105/31 94/106/31 89/101/30
f 87/99/30 89/101/30 94/106/31
f 94/106/31 95/107/31 87/99/30
f 88/100/30 87/99/30 95/107/31
f 95/107/31 96/108/31 88/100/30
f 96/108/11 95/107/11 97/109/11
f 97/109/11 98/110/11 96/108/11
f 95/107/11 94/106/11 99/111/11
f 99/111/11 97/109/11 95/107/11
f 94/106/11 93/105/11 100/112/11
f 100/112/11 99/111/11 94/106/11
f 93/105/11 92/104/11 101/113/11
f 101/113/11 100/112/11 93/105/11
f 70/82/11 68/80/11 100/114/11
f 100/114/11 101/115/11 70/82/11
f 68/80/11 66/78/11 99/116/11
f 99/116/11 100/114/11 68/80/11
f 66/78/11 63/75/11 97/117/11
f 97/117/11 99/116/11 66/78/11
f 63/75/11 62/74/11 98/118/11
f 98/118/11 97/117/11 63/75/11
f 102/119/32 103/120/33 104/121/34
f 104/121/34 105/122/35 102/119/32
f 106/123/36 102/124/11 107/125/37
f 108/126/11 106/123/36 109/127/38
f 110/128/39 111/129/40 112/130/41
f 111/131/42 110/132/11 113/133/43
f 113/133/43 114/134/11 115/135/11
f 116/136/44 117/137/19 118/138/19
f 117/139/45 105/122/35 104/140/34
f 119/141/19 120/142/46 121/143/47
f 112/130/41 119/144/48 122/145/49
f 123/146/50 124/147/51 125/148/52
f 124/149/19 116/136/44 118/138/19
f 126/150/53 127/151/54 128/152/55
f 121/143/47 126/153/19 129/154/19
f 108/155/56 109/156/57 123/146/50
f 128/152/55 115/157/58 130/158/59
f 131/159/60 128/152/55 127/151/54
f 112/130/41 132/160/61 120/161/62
f 43/162/23 42/163/63 107/125/37
f 43/162/23 107/125/37 133/164/64
f 133/164/64 134/165/65 43/162/23
f 62/74/11 115/166/11 114/167/11
f 114/167/11 98/118/11 62/74/11
f 135/168/66 105/122/35 136/169/67
f 122/170/49 88/100/30 96/108/31
f 96/108/31 110/171/39 122/170/49
f 48/172/17 46/173/68 137/174/69
f 137/174/69 138/175/70 48/172/17
f 129/176/19 78/90/19 86/98/19
f 86/98/19 119/177/19 129/176/19
f 139/178/71 123/146/50 137/179/72
f 130/180/59 65/77/27 76/88/28
f 76/88/28 126/181/53 130/180/59
f 108/182/56 125/183/52 71/83/27
f 71/83/27 70/82/26 108/182/56
f 115/166/58 62/74/26 65/77/27
f 65/77/27 130/180/59 115/166/58
f 125/183/52 124/184/51 72/84/28
f 72/84/28 71/83/27 125/183/52
f 124/184/19 118/185/19 81/93/19
f 81/93/19 72/84/19 124/184/19
f 126/181/19 76/88/19 78/90/19
f 78/90/19 129/176/19 126/181/19
f 118/185/19 117/186/19 82/94/19
f 82/94/19 81/93/19 118/185/19
f 117/186/45 104/187/34 91/103/30
f 91/103/30 82/94/29 117/186/45
f 119/177/48 86/98/29 88/100/30
f 88/100/30 122/170/49 119/177/48
f 102/188/32 140/189/28 141/190/31
f 141/190/31 92/104/31 91/103/30
f 141/190/31 91/103/30 104/187/34
f 141/190/31 104/187/34 103/191/33
f 141/190/31 103/191/33 102/188/32
f 92/104/11 141/190/11 140/189/11
f 140/189/11 102/188/11 142/192/11
f 140/189/11 142/192/11 143/193/11
f 140/189/11 143/193/11 101/113/11
f 140/189/11 101/113/11 92/104/11
f 110/171/11 96/108/11 98/110/11
f 98/110/11 114/194/11 110/171/11
f 108/182/11 70/82/11 101/115/11
f 101/115/11 143/195/11 108/182/11
f 10/196/5 132/197/73 21/198/6
f 30/199/74 144/200/75 13/201/76
f 11/202/77 145/203/78 111/131/42
f 111/131/42 12/204/79 11/202/77
f 3/205/11 25/206/11 19/207/11
f 19/207/11 4/208/11 3/205/11
f 60/209/80 146/210/81 40/211/82
f 54/212/83 50/213/11 55/214/11
f 30/36/84 29/35/84 147/215/84
f 147/215/84 131/159/84 30/36/84
f 24/26/9 22/25/9 132/160/61
f 132/160/61 148/216/85 24/26/9
f 60/72/86 58/71/86 133/217/86
f 133/217/86 135/168/86 60/72/86
f 54/63/21 52/62/21 137/179/72
f 137/179/72 149/218/87 54/63/21
f 147/219/88 29/220/89 150/221/90
f 131/222/91 144/200/75 30/199/74
f 132/223/73 22/23/7 21/22/6
f 148/224/92 145/225/78 24/226/93
f 133/227/64 58/68/24 134/228/65
f 135/229/94 146/210/81 60/209/80
f 137/230/69 52/59/18 138/231/70
f 149/232/95 151/233/96 54/212/83
f 1/1/97 4/4/98 19/19/97
f 19/19/97 20/20/99 1/1/97
f 23/24/100 25/27/101 3/3/101
f 3/3/101 2/2/101 23/24/100
f 26/28/102 27/29/102 7/7/102
f 7/7/102 6/6/103 26/28/102
f 5/5/104 8/8/105 28/34/105
f 28/34/105 31/37/105 5/5/104
f 32/38/106 35/41/106 50/56/106
f 50/56/106 51/57/106 32/38/106
f 53/61/107 55/64/107 34/40/108
f 34/40/108 33/39/107 53/61/107
f 56/65/109 57/66/109 38/44/110
f 38/44/110 37/43/109 56/65/109
f 36/42/111 39/45/111 59/70/111
f 59/70/111 61/73/111 36/42/111
f 144/234/75 131/235/91 13/236/76
f 9/237/112 120/142/46 10/196/5
f 14/238/113 121/143/47 17/239/114
f 13/236/76 127/240/115 14/238/113
f 17/241/114 121/143/47 9/237/112
f 5/242/19 31/243/19 26/244/19
f 26/244/19 6/245/19 5/242/19
f 30/199/74 26/244/19 31/243/19
f 10/21/5 22/23/7 20/246/19
f 27/31/11 29/247/89 28/32/11
f 24/248/93 145/249/78 11/250/77
f 24/248/93 19/207/11 25/206/11
f 16/251/116 150/252/90 29/247/89
f 150/221/90 152/253/117 147/219/88
f 12/204/79 113/133/43 18/254/118
f 15/255/119 113/133/43 152/253/117
f 127/240/115 126/153/19 121/143/47
f 119/141/19 121/143/47 129/154/19
f 113/133/43 115/135/11 152/253/117
f 113/133/43 110/132/11 114/134/11
f 12/204/79 111/131/42 113/133/43
f 18/256/118 113/133/43 15/255/119
f 14/238/113 127/240/115 121/143/47
f 9/237/112 121/143/47 120/142/46
f 16/257/116 15/255/119 152/253/117
f 152/253/117 150/221/90 16/257/116
f 145/203/78 148/258/92 111/131/42
f 24/248/93 11/250/77 19/207/11
f 16/251/116 29/247/89 27/31/11
f 30/199/74 13/201/76 26/244/19
f 20/246/19 22/23/7 23/259/19
f 126/150/53 128/152/55 130/260/59
f 152/261/120 115/157/58 128/152/55
f 110/128/39 112/130/41 122/262/49
f 120/161/62 119/144/48 112/130/41
f 143/263/11 106/123/36 108/126/11
f 149/264/95 109/127/38 47/265/121
f 149/264/95 47/265/121 49/266/122
f 49/266/122 151/267/96 149/264/95
f 109/127/38 106/123/36 47/265/121
f 45/268/123 106/123/36 42/163/63
f 42/163/63 106/123/36 107/125/37
f 136/269/124 116/136/44 41/270/125
f 41/270/125 116/136/44 44/271/126
f 146/272/81 135/273/94 41/270/125
f 41/270/125 40/274/82 146/272/81
f 46/173/68 116/136/44 139/275/127
f 124/149/19 139/275/127 116/136/44
f 136/269/124 117/137/19 116/136/44
f 108/155/56 123/146/50 125/276/52
f 139/178/71 124/147/51 123/146/50
f 117/139/45 136/169/67 105/122/35
f 54/212/83 151/233/96 49/277/122
f 34/278/11 55/214/11 50/213/11
f 50/213/11 35/279/11 34/278/11
f 54/212/83 49/277/122 50/213/11
f 43/67/23 134/228/65 58/68/24
f 38/280/11 57/69/11 59/281/11
f 59/281/11 39/282/11 38/280/11
f 57/69/11 58/68/24 59/281/11
f 136/269/124 41/270/125 135/273/94
f 46/173/68 139/275/127 137/174/69
f 47/265/121 106/123/36 45/283/123
f 44/284/126 116/136/44 46/173/68
f 60/209/80 56/285/19 61/286/19
f 60/209/80 40/211/82 56/285/19
f 36/287/19 61/286/19 56/285/19
f 56/285/19 37/288/19 36/287/19
f 48/58/17 138/231/70 52/59/18
f 32/289/19 51/60/19 53/290/19
f 53/290/19 33/291/19 32/289/19
f 51/60/19 52/59/18 53/290/19
f 137/179/72 123/146/50 149/218/87
f 149/218/87 123/146/50 109/156/57
f 107/292/128 105/122/35 133/217/129
f 133/217/129 105/122/35 135/168/66
f 148/216/85 132/160/61 112/130/41
f 148/216/85 112/130/41 111/129/40
f 128/152/55 147/215/130 152/261/120
f 131/159/60 147/215/130 128/152/55
f 1/293/19 20/246/19 23/259/19
f 23/259/19 2/294/19 1/293/19
f 13/236/76 131/235/91 127/240/115
f 10/196/5 120/142/46 132/197/73
f 142/295/11 102/124/11 106/123/36
f 142/295/11 106/123/36 143/263/11
f 102/119/32 105/122/35 107/292/128
