# Blender v2.79 (sub 0) OBJ File: ''
# www.blender.org
mtllib safety_fence0.mtl
o barrière_low.001_Mesh
v -1.300362 0.898475 0.101889
v -1.302140 1.101439 0.051975
v -1.203789 0.880520 0.063353
v -1.203545 0.900029 0.063526
v -1.138834 0.880520 0.063353
v -1.139078 0.900029 0.063526
v -1.203014 -0.003348 0.391232
v -1.202790 -0.002235 0.470699
v -1.139609 -0.003348 0.391232
v -1.139833 -0.002235 0.470699
v -1.197613 0.301341 0.255943
v -1.198608 0.344012 0.239643
v -1.145010 0.301341 0.255943
v -1.144015 0.344012 0.239643
v 1.300362 0.898475 0.101889
v 1.302140 1.101439 0.051975
v 1.203789 0.880520 0.063353
v 1.203545 0.900029 0.063526
v 1.138834 0.880520 0.063353
v 1.139078 0.900029 0.063526
v 1.203014 -0.003348 0.391232
v 1.202790 -0.002235 0.470699
v 1.139609 -0.003348 0.391232
v 1.139833 -0.002235 0.470699
v 1.197613 0.301341 0.255943
v 1.198608 0.344012 0.239643
v 1.145010 0.301341 0.255943
v 1.144015 0.344012 0.239643
v -1.300362 0.898475 -0.101889
v -1.302140 1.101439 -0.051975
v -1.203789 0.880520 -0.063353
v -1.203545 0.900029 -0.063526
v -1.204866 0.876297 0.000000
v -1.205000 0.900000 0.000000
v -1.138834 0.880520 -0.063353
v -1.139078 0.900029 -0.063526
v -1.137757 0.876297 0.000000
v -1.137623 0.900000 0.000000
v -1.203014 -0.003348 -0.391232
v -1.202790 -0.002235 -0.470699
v -1.139609 -0.003348 -0.391232
v -1.139833 -0.002235 -0.470699
v -1.197613 0.301341 -0.255943
v -1.198608 0.344012 -0.239643
v -1.145010 0.301341 -0.255943
v -1.144015 0.344012 -0.239643
v 1.300362 0.898475 -0.101889
v 1.302140 1.101439 -0.051975
v 1.203789 0.880520 -0.063353
v 1.203545 0.900029 -0.063526
v 1.204866 0.876297 0.000000
v 1.205000 0.900000 0.000000
v 1.138834 0.880520 -0.063353
v 1.139078 0.900029 -0.063526
v 1.137757 0.876297 0.000000
v 1.137623 0.900000 0.000000
v 1.203014 -0.003348 -0.391232
v 1.202790 -0.002235 -0.470699
v 1.139609 -0.003348 -0.391232
v 1.139833 -0.002235 -0.470699
v 1.197613 0.301341 -0.255943
v 1.198608 0.344012 -0.239643
v 1.145010 0.301341 -0.255943
v 1.144015 0.344012 -0.239643
vt 0.059627 0.693247
vt 0.038687 0.702635
vt 0.035157 0.694764
vt 0.056526 0.686172
vt 0.509798 0.390873
vt 0.471938 0.390873
vt 0.453142 0.315427
vt 0.528595 0.315427
vt 0.003475 0.093289
vt 0.996043 0.093288
vt 0.996664 0.171039
vt 0.002854 0.171039
vt 0.200529 0.702709
vt 0.179621 0.693249
vt 0.182745 0.686185
vt 0.204085 0.694850
vt 0.560898 0.390873
vt 0.538953 0.390873
vt 0.538953 0.383149
vt 0.560898 0.383149
vt 0.345871 0.686198
vt 0.323926 0.686198
vt 0.323926 0.315427
vt 0.345872 0.315427
vt 0.538953 0.347730
vt 0.567181 0.347730
vt 0.567181 0.369676
vt 0.538953 0.369676
vt 0.179620 0.315427
vt 0.205339 0.327063
vt 0.035158 0.326975
vt 0.060915 0.315427
vt 0.401186 0.741894
vt 0.033396 0.741894
vt 0.033396 0.719949
vt 0.401186 0.719949
vt 0.636458 0.543497
vt 0.636458 0.561369
vt 0.453142 0.561369
vt 0.453142 0.543497
vt 0.648927 0.515267
vt 0.648927 0.533139
vt 0.453142 0.533139
vt 0.453142 0.515267
vt 0.642693 0.685402
vt 0.459376 0.685403
vt 0.453142 0.671810
vt 0.648927 0.671810
vt 0.453142 0.599957
vt 0.648927 0.599957
vt 0.642693 0.613550
vt 0.459376 0.613550
vt 0.287850 0.693249
vt 0.290974 0.686185
vt 0.312314 0.694849
vt 0.308758 0.702709
vt 0.002854 0.256850
vt 0.002854 0.181397
vt 0.995416 0.181397
vt 0.995416 0.256850
vt 0.110918 0.702636
vt 0.107389 0.694765
vt 0.128758 0.686173
vt 0.131859 0.693248
vt 0.571257 0.390873
vt 0.571257 0.383149
vt 0.593202 0.383149
vt 0.593202 0.390873
vt 0.420838 0.686198
vt 0.420838 0.315427
vt 0.442784 0.315427
vt 0.442784 0.686198
vt 0.538953 0.455481
vt 0.538953 0.433535
vt 0.567181 0.433535
vt 0.567181 0.455481
vt 0.107389 0.326975
vt 0.133147 0.315427
vt 0.287850 0.315427
vt 0.313568 0.327063
vt 0.400614 0.751665
vt 0.400614 0.773610
vt 0.032823 0.773610
vt 0.032823 0.751665
vt 0.636458 0.589599
vt 0.453142 0.589599
vt 0.453142 0.571727
vt 0.636458 0.571727
vt 0.648927 0.504909
vt 0.453142 0.504909
vt 0.453142 0.487037
vt 0.648927 0.487037
vt 0.459376 0.647859
vt 0.642693 0.647859
vt 0.648927 0.661452
vt 0.453142 0.661452
vt 0.996652 0.305069
vt 0.002854 0.305069
vt 0.002854 0.267208
vt 0.996651 0.267208
vt 0.251773 0.693249
vt 0.254898 0.686185
vt 0.276237 0.694849
vt 0.272681 0.702709
vt 0.003475 0.082930
vt 0.002854 0.005179
vt 0.996664 0.005179
vt 0.996043 0.082929
vt 0.147034 0.702636
vt 0.143505 0.694765
vt 0.164874 0.686173
vt 0.167975 0.693248
vt 0.560898 0.465839
vt 0.560898 0.473563
vt 0.538953 0.473563
vt 0.538953 0.465839
vt 0.388534 0.686198
vt 0.388534 0.315427
vt 0.410480 0.315427
vt 0.410480 0.686198
vt 0.567181 0.401232
vt 0.567181 0.423177
vt 0.538953 0.423177
vt 0.538953 0.401232
vt 0.143505 0.326975
vt 0.169262 0.315427
vt 0.251773 0.315427
vt 0.277491 0.327063
vt 0.768977 0.719949
vt 0.768977 0.741894
vt 0.095743 0.693247
vt 0.074803 0.702635
vt 0.071274 0.694764
vt 0.092642 0.686172
vt 0.236605 0.702709
vt 0.215697 0.693249
vt 0.218822 0.686185
vt 0.240161 0.694850
vt 0.571256 0.465839
vt 0.593202 0.465839
vt 0.593202 0.473563
vt 0.571256 0.473563
vt 0.378175 0.686198
vt 0.356230 0.686198
vt 0.356230 0.315427
vt 0.378176 0.315427
vt 0.567181 0.337372
vt 0.538953 0.337372
vt 0.538953 0.315427
vt 0.567181 0.315427
vt 0.215697 0.315427
vt 0.241415 0.327063
vt 0.071273 0.326975
vt 0.097031 0.315427
vt 0.768404 0.751665
vt 0.768404 0.773610
vt 0.642693 0.623908
vt 0.648927 0.637501
vt 0.453142 0.637501
vt 0.459376 0.623908
vt 0.509798 0.401232
vt 0.528595 0.476678
vt 0.453142 0.476678
vt 0.471938 0.401232
vn -0.9998 0.0025 0.0199
vn -1.0000 0.0025 0.0000
vn -0.9999 0.0025 0.0140
vn 1.0000 -0.0088 0.0000
vn 0.0000 0.2388 0.9711
vn 1.0000 0.0025 0.0000
vn 0.9998 0.0025 0.0199
vn 0.9999 0.0025 0.0140
vn 0.0000 -0.0089 1.0000
vn 0.0000 0.2110 0.9775
vn 0.0000 0.4190 0.9080
vn 0.0000 -0.9999 0.0140
vn 0.0000 -0.8418 -0.5398
vn 1.0000 0.0025 0.0090
vn -1.0000 0.0025 0.0090
vn 0.0000 -0.4064 -0.9137
vn 0.0000 1.0000 0.0000
vn 0.0000 -1.0000 0.0000
vn 0.9997 -0.0233 0.0000
vn -0.9997 -0.0233 0.0000
vn -0.9998 0.0025 -0.0199
vn -0.9999 0.0025 -0.0140
vn 0.0000 0.2388 -0.9711
vn 0.9999 0.0025 -0.0140
vn 0.9998 0.0025 -0.0199
vn 0.0000 -0.0089 -1.0000
vn 0.0000 0.2110 -0.9775
vn 0.0000 0.4190 -0.9080
vn 0.0000 -0.9999 -0.0140
vn 0.0000 -0.8418 0.5398
vn 1.0000 0.0025 -0.0090
vn -1.0000 0.0025 -0.0090
vn 0.0000 -0.4064 0.9137
vn -1.0000 -0.0088 0.0000
usemtl Material.002
s 1
f 4/1/1 34/2/2 33/3/2 3/4/3
f 48/5/4 16/6/4 15/7/4 47/8/4
f 1/9/5 15/10/5 16/11/5 2/12/5
f 38/13/6 6/14/7 5/15/8 37/16/6
f 6/17/9 4/18/9 3/19/10 5/20/10
f 5/21/10 3/22/10 8/23/11 10/24/11
f 8/25/12 7/26/13 9/27/13 10/28/12
f 37/16/6 5/15/8 10/29/14 9/30/14
f 3/4/3 33/3/2 7/31/15 8/32/15
f 37/33/16 9/34/13 7/35/13 33/36/16
f 46/37/17 44/38/17 12/39/17 14/40/17
f 43/41/18 45/42/18 13/43/18 11/44/18
f 62/45/19 26/46/19 25/47/19 61/48/19
f 13/49/19 45/50/19 46/51/19 14/52/19
f 18/53/7 17/54/8 51/55/6 52/56/6
f 1/57/18 29/58/18 47/59/18 15/60/18
f 56/61/2 55/62/2 19/63/3 20/64/1
f 20/65/9 19/66/10 17/67/10 18/68/9
f 19/69/10 24/70/11 22/71/11 17/72/10
f 22/73/12 24/74/12 23/75/13 21/76/13
f 55/62/2 23/77/15 24/78/15 19/63/3
f 17/54/8 22/79/14 21/80/14 51/55/6
f 55/81/16 51/82/16 21/83/13 23/84/13
f 64/85/17 28/86/17 26/87/17 62/88/17
f 61/89/18 25/90/18 27/91/18 63/92/18
f 28/93/20 64/94/20 63/95/20 27/96/20
f 48/97/17 30/98/17 2/99/17 16/100/17
f 32/101/21 31/102/22 33/103/2 34/104/2
f 29/105/23 30/106/23 48/107/23 47/108/23
f 38/109/6 37/110/6 35/111/24 36/112/25
f 36/113/26 35/114/27 31/115/27 32/116/26
f 35/117/27 42/118/28 40/119/28 31/120/27
f 40/121/29 42/122/29 41/123/30 39/124/30
f 37/110/6 41/125/31 42/126/31 35/111/24
f 31/102/22 40/127/32 39/128/32 33/103/2
f 37/33/33 33/36/33 39/129/30 41/130/30
f 50/131/25 52/132/6 51/133/6 49/134/24
f 56/135/2 54/136/21 53/137/22 55/138/2
f 54/139/26 50/140/26 49/141/27 53/142/27
f 53/143/27 49/144/27 58/145/28 60/146/28
f 58/147/29 57/148/30 59/149/30 60/150/29
f 55/138/2 53/137/22 60/151/32 59/152/32
f 49/134/24 51/133/6 57/153/31 58/154/31
f 55/81/33 59/155/30 57/156/30 51/82/33
f 44/157/20 43/158/20 11/159/20 12/160/20
f 30/161/34 29/162/34 1/163/34 2/164/34
